<ttFont>
          <CharString index="0">
            rmoveto
            207 194 112 63 56 hvcurveto
            -66 141 rlineto
            -32 -61 -119 -46 -104 hhcurveto
            -161 -88 96 216 -20 hvcurveto
            612 hlineto
            11 55 8 68 97 vvcurveto
            261 -4 -154 159 -307 hhcurveto
            -351 -222 -211 -389 -345 153 -245 416 hvcurveto
            -21 1034 rmoveto
            91 24 -94 -157 hvcurveto
            -18 -1 -48 -18 vvcurveto
            -259 hlineto
            287 3 58 48 84 hhcurveto
            return
          </CharString>
          <CharString index="1">
            hmoveto
            574 -45 callgsubr
            -152 18 56 222 rlineto
            436 hlineto
            58 -217 -133 63 callgsubr
            697 -31 callgsubr
            -107 23 -438 1350 rlineto
            -442 hlineto
            -437 -1349 -115 -24 rlineto
            671 1001 rmoveto
            24 126 22 -126 155 -588 rlineto
            -348 hlineto
            return
          </CharString>
          <CharString index="2">
            rmoveto
            -103 callgsubr
            return
          </CharString>
          <CharString index="3">
            rmoveto
            443 2 270 334 477 -100 callsubr
            return
          </CharString>
          <CharString index="4">
            rmoveto
            278 236 100 5 109 hvcurveto
            532 vlineto
            94 16 rlineto
            163 -658 -163 vlineto
            158 -22 rlineto
            -414 vlineto
            -33 -29 -67 -26 -82 hhcurveto
            -215 -73 247 390 403 103 216 215 98 45 -28 -17 13 hvcurveto
            63 -284 rlineto
            295 hlineto
            27 417 rlineto
            17 -73 -244 47 -220 hhcurveto
            -514 -291 -278 -513 -436 253 -339 479 hvcurveto
            return
          </CharString>
          <CharString index="5">
            rmoveto
            -115 -49 130 323 302 53 122 101 116 41 -130 -323 -302 -46 -122 -101 hvcurveto
            -589 425 rmoveto
            -388 238 -194 328 325 272 170 439 389 -236 193 -330 -324 -273 -188 -421 vhcurveto
            return
          </CharString>
          <CharString index="6">
            -91 23 -31 121 97 156 20 10 50 vhcurveto
            148 -100 586 vlineto
            305 -103 124 -346 -266 -206 -115 -44 -57 vhcurveto
            79 -168 rlineto
            1 hlineto
            27 66 119 50 162 hhcurveto
            161 24 -56 -119 hvcurveto
            -32 vlineto
            return
          </CharString>
          <CharString index="7">
            -93 callsubr
            9 1415 rmoveto
            153 95 -135 -468 -430 -90 -231 -161 -153 -95 166 469 429 89 200 162 hvcurveto
            return
          </CharString>
          <CharString index="8">
            rmoveto
            1238 hlineto
            44 399 -201 55 rlineto
            hintmask 1001000101000000
            -132 -267 -384 -31 rlineto
            528 vlineto
            207 -5 37 -179 rlineto
            154 534 -154 hlineto
            -39 -166 -205 -5 rlineto
            510 vlineto
            351 -25 rlineto
            hintmask 0101000101010000
            77 -210 rlineto
            185 hlineto
            hintmask 1001100001000000
            -28 384 rlineto
            -1156 hlineto
            hintmask 1001000101000000
            -74 callgsubr
            hintmask 1001001001000000
            155 33 callsubr
            hintmask 0011010001000000
            -24 callgsubr
            endchar
          </CharString>
          <CharString index="9">
            rmoveto
            -10 79 142 -70 250 hhcurveto
            360 136 172 180 216 -182 94 -170 74 hvcurveto
            -95 callgsubr
            return
          </CharString>
          <CharString index="10">
            rmoveto
            -339 1 154 -247 390 hhcurveto
            226 157 115 50 42 hvcurveto
            175 callgsubr
            -37 -65 -80 -35 -127 hhcurveto
            -135 -78 143 271 1 hvcurveto
            309 1 66 70 85 hhcurveto
            32 35 -12 -34 8 hvcurveto
            57 -249 rlineto
            243 hlineto
            17 399 rlineto
            3 -72 -86 59 -214 hhcurveto
            -341 -253 -221 -384 -1 hvcurveto
            return
          </CharString>
          <CharString index="11">
            -33 callsubr
            69 18 197 109 127 134 -242 160 rcurveline
            -34 callgsubr
            return
          </CharString>
          <CharString index="12">
            -236 -39 -130 -94 -52 vhcurveto
            -23 -38 -41 -2 -17 hhcurveto
            19 -145 rlineto
            -5 20 73 -3 38 hhcurveto
            160 309 180 340 hvcurveto
            1098 vlineto
            -69 47 5 callsubr
            -446 -55 -1 -179 132 -41 rlineto
            return
          </CharString>
          <CharString index="13">
            rmoveto
            2 hlineto
            129 48 238 186 80 136 -217 199 rcurveline
            -1 hlineto
            -381 -452 rlineto
            return
          </CharString>
          <CharString index="14">
            vvcurveto
            461 -190 290 -507 2 vhcurveto
            -444 1 -269 -307 -476 vvcurveto
            -469 191 -317 506 2 vhcurveto
            return
          </CharString>
          <CharString index="15">
            147 115 callsubr
            142 -23 -163 -293 rlineto
            -199 292 hlineto
            118 24 -2 147 rlineto
            -624 -147 hlineto
            115 -23 rlineto
            -293 -200 vlineto
            -163 293 143 61 callsubr
            115 callsubr
            171 -24 223 -316 -224 -93 -46 -345 -90 -37 rlinecurve
            -96 -20 rlineto
            -156 413 vlineto
            188 -21 523 2 200 hvcurveto
            102 1 rlineto
            -350 vlineto
            -147 -17 callsubr
            710 -31 callgsubr
            -170 24 rlineto
            349 102 vlineto
            -2 201 -21 -523 188 hhcurveto
            return
          </CharString>
          <CharString index="16">
            rmoveto
            269 134 169 180 16 0 14 -2 15 hvcurveto
            -191 hlineto
            -5 0 -7 -1 -9 vhcurveto
            -56 -7 -38 -85 -162 hhcurveto
            -164 -45 86 55 -9 hvcurveto
            -1 9 -1 7 5 vvcurveto
            -185 hlineto
            -2 -15 0 -16 -16 vvcurveto
            -180 128 -167 277 vhcurveto
            return
          </CharString>
          <CharString index="17">
            -107 callsubr
            endchar
          </CharString>
          <CharString index="18">
            36 callgsubr
            -156 175 506 184 273 384 -193 193 -13 callsubr
            return
          </CharString>
          <CharString index="19">
            542 -141 rmoveto
            -82 -47 77 108 93 59 92 186 1 hvcurveto
            -315 vlineto
            -32 -28 -50 -24 -38 hhcurveto
            return
          </CharString>
          <CharString index="20">
            hintmask 00000000
            hintmask 10010010
            74 hmoveto
            731 150 hlineto
            hintmask 01100010
            -162 25 rlineto
            1155 vlineto
            hintmask 10010010
            162 -70 callsubr
            -734 -74 callgsubr
            hintmask 01100010
            156 -52 callgsubr
            hintmask 10010010
            -153 -24 rlineto
            return
          </CharString>
          <CharString index="21">
            -93 66 -79 95 vhcurveto
            550 hmoveto
            1 hlineto
            153 64 90 115 hvcurveto
            return
          </CharString>
          <CharString index="22">
            702 vlineto
            26 31 58 44 77 hhcurveto
            95 30 -50 -171 hvcurveto
            -550 vlineto
            -85 -21 -38 callsubr
            592 154 vlineto
            -100 19 rlineto
            551 vlineto
            326 -97 112 -234 vhcurveto
            return
          </CharString>
          <CharString index="23">
            -31 callgsubr
            -85 24 -101 36 -67 543 -316 76 rlinecurve
            352 499 181 -70 callsubr
            -592 -74 callgsubr
            128 -28 -295 -492 rlineto
            -119 491 hlineto
            163 -7 callsubr
            -724 -74 callgsubr
            162 -29 rlineto
            -491 -120 vlineto
            -295 492 129 28 rlineto
            162 -586 -74 callgsubr
            174 -30 353 -499 -316 -76 -68 -543 -100 -36 rlinecurve
            -85 -17 callsubr
            425 vlineto
            175 40 705 236 hhcurveto
            38 -529 hlineto
            -175 -17 callsubr
            757 150 vlineto
            -183 26 rlineto
            529 38 vlineto
            236 39 -705 176 hhcurveto
            endchar
          </CharString>
          <CharString index="24">
            -1 hlineto
            -103 -79 -77 -98 hvcurveto
            -165 129 -1 -186 vvcurveto
            -194 -93 -115 -46 -46 vhcurveto
            -39 vlineto
            91 -78 rlineto
            2 hlineto
            148 77 207 258 325 vvcurveto
            176 -103 163 -152 vhcurveto
            return
          </CharString>
          <CharString index="25">
            rmoveto
            303 185 302 -185 126 109 -323 299 rlineto
            -209 hlineto
            return
          </CharString>
          <CharString index="26">
            rmoveto
            282 171 145 219 11 -1 38 -1 11 hvcurveto
            -257 hlineto
            -31 -5 -67 -39 -99 -51 -82 -106 -106 -52 82 99 39 -5 67 -31 hvcurveto
            -255 hlineto
            -1 -11 -1 -38 -11 vvcurveto
            -217 181 -147 269 vhcurveto
            return
          </CharString>
          <CharString index="27">
            rmoveto
            3 hlineto
            149 117 -380 452 rlineto
            -1 hlineto
            -217 -199 79 -136 239 -186 128 -48 rlinecurve
            endchar
          </CharString>
          <CharString index="28">
            rmoveto
            302 hlineto
            171 580 25 229 38 -229 194 -580 rlineto
            293 hlineto
            308 986 95 21 rlineto
            146 -470 -146 vlineto
            143 -24 -111 -464 -29 -169 -33 170 -203 633 rlineto
            -316 hlineto
            -165 -634 -26 -171 -34 172 -123 464 127 23 rlineto
            146 -603 -146 vlineto
            90 -21 rlineto
            return
          </CharString>
          <CharString index="29">
            -455 -26 rlineto
            -145 vlineto
            118 -29 rlineto
            -720 vlineto
            -19 -20 -44 -40 -85 hhcurveto
            -84 -39 45 155 hvcurveto
            return
          </CharString>
          <CharString index="30">
            798 -16 -104 callgsubr
            return
          </CharString>
          <CharString index="31">
            152 -152 return
          </CharString>
          <CharString index="32">
            -1 callgsubr
            -54 callsubr
            return
          </CharString>
          <CharString index="33">
            407 -67 callgsubr
            hintmask 1001001010000000
            91 hmoveto
            45 callgsubr
            hintmask 1100001010000000
            -85 callsubr
            hintmask 1010010010000000
            7 callgsubr
            hintmask 1001010010000000
            -19 callgsubr
            hintmask 1001001010000000
            2 callsubr
            -103 -20 rlineto
            hintmask 0000100100000000
            return
          </CharString>
          <CharString index="34">
            78 -12 155 -143 -19 callsubr
            696 170 464 -68 callgsubr
            -137 148 -11 -20 hstemhm
            209 409 319 410 -354 458 -67 callgsubr
            hintmask 0001100101000000
            60 hmoveto
            357 hlineto
            125 59 -12 169 hhcurveto
            hintmask 1000100101010000
            531 150 202 273 232 -182 116 -271 2 hvcurveto
            hintmask 1000100101100000
            187 22 162 129 221 vvcurveto
            214 -108 134 -494 vhcurveto
            hintmask 1000100011000000
            -105 -100 -11 -131 hhcurveto
            -348 hlineto
            hintmask 1000101001000000
            -74 callgsubr
            hintmask 0010110001000000
            148 -52 callgsubr
            hintmask 0100100101010000
            149 callsubr
            558 539 rmoveto
            2 29 64 3 54 hhcurveto
            151 77 -62 -188 hvcurveto
            hintmask 1000100101010000
            -186 -64 -117 -173 -51 -63 6 12 -24 vhcurveto
            1 1215 rmoveto
            5 20 90 4 7 hhcurveto
            hintmask 1000100101100000
            137 64 -71 -162 -172 -46 -114 -138 -46 -59 1 4 -29 hvcurveto
            endchar
          </CharString>
          <CharString index="35">
            1178 hlineto
            45 469 -205 41 -124 -314 -522 -45 150 126 688 1111 -54 138 rlineto
            -1101 hlineto
            -54 -433 205 -31 119 288 430 32 -125 -135 -707 -1114 rlineto
            return
          </CharString>
          <CharString index="36">
            rmoveto
            846 hlineto
            53 321 -144 28 -86 -142 -450 -46 rlineto
            284 144 277 245 230 vvcurveto
            211 -149 118 -229 -248 -139 -126 -56 -59 vhcurveto
            94 -121 rlineto
            33 46 82 71 130 hhcurveto
            86 66 -56 -95 -227 -292 -274 -221 -122 hvcurveto
            return
          </CharString>
          <CharString index="37">
            30 rlineto
            162 return
          </CharString>
          <CharString index="38">
            134 -102 callsubr
            return
          </CharString>
          <CharString index="39">
            -628 -820 rmoveto
            195 hlineto
            116 54 -36 -111 -150 -106 -63 -106 hvcurveto
            -2 hlineto
            -153 -61 91 137 60 7 43 10 31 hvcurveto
            -1 14 16 -1 16 hhcurveto
            return
          </CharString>
          <CharString index="40">
            -103 callsubr
            endchar
          </CharString>
          <CharString index="41">
            197 -11 101 -471 rlineto
            208 hlineto
            -27 654 rlineto
            -1386 hlineto
            -32 -654 rlineto
            221 hlineto
            95 471 207 11 rlineto
            return
          </CharString>
          <CharString index="42">
            hmoveto
            604 -45 callgsubr
            -101 21 rlineto
            701 vlineto
            35 35 60 35 72 hhcurveto
            102 24 -59 -162 hvcurveto
            -551 vlineto
            -95 -21 rlineto
            -151 607 -31 callgsubr
            -116 21 rlineto
            552 vlineto
            294 -69 143 -262 -189 -131 -85 -61 -69 vhcurveto
            21 187 -1 427 -68 50 rlineto
            -6 hlineto
            -452 -53 rlineto
            -142 vlineto
            126 callsubr
            -1283 vlineto
            -99 -20 rlineto
            return
          </CharString>
          <CharString index="43">
            143 97 72 131 98 -79 93 -127 -129 -102 -82 -122 -111 97 -79 100 hvcurveto
            return
          </CharString>
          <CharString index="44">
            rlineto
            -1154 vlineto
            return
          </CharString>
          <CharString index="45">
            737 -45 callgsubr
            -173 22 rlineto
            462 147 vlineto
            -48 153 76 -588 100 hhcurveto
            443 -45 callgsubr
            -50 17 -97 26 -42 425 -265 83 rlinecurve
            207 66 79 198 158 vvcurveto
            294 -165 114 -448 vhcurveto
            return
          </CharString>
          <CharString index="46">
            68 hmoveto
            718 -45 callgsubr
            -163 23 rlineto
            499 483 -498 vlineto
            -149 -17 callsubr
            709 -31 callgsubr
            -146 23 rlineto
            1156 vlineto
            146 29 142 callsubr
            150 -30 rlineto
            -460 -483 461 vlineto
            163 -7 callsubr
            -716 -74 callgsubr
            139 -18 callgsubr
            -141 -23 rlineto
            return
          </CharString>
          <CharString index="47">
            -111 21 rlineto
            1457 vlineto
            -68 50 rlineto
            -6 hlineto
            -452 -53 rlineto
            -142 vlineto
            126 callsubr
            -1282 vlineto
            return
          </CharString>
          <CharString index="48">
            rmoveto
            30 33 95 183 256 vvcurveto
            149 -31 94 -27 32 vhcurveto
            -259 -56 -9 -42 rlineto
            15 -20 41 -83 -165 vvcurveto
            -216 -14 -57 -11 -43 vhcurveto
            9 -26 rlineto
            endchar
          </CharString>
          <CharString index="49">
            245 800 rmoveto
            -139 -30 -99 -99 vhcurveto
            -1 hlineto
            -97 -40 83 165 139 34 95 104 hvcurveto
            1 hlineto
            93 35 -73 -171 hvcurveto
            return
          </CharString>
          <CharString index="50">
            -90 callgsubr
            8 callgsubr
            244 154 -67 callgsubr
            hintmask 1001000110000000
            60 hmoveto
            1238 hlineto
            44 399 -201 55 rlineto
            hintmask 0101000111000000
            -132 -267 -384 -31 rlineto
            528 vlineto
            207 -5 37 -179 rlineto
            154 534 -154 hlineto
            -39 -166 -205 -5 rlineto
            510 vlineto
            351 -25 rlineto
            hintmask 1001100010000000
            77 -210 rlineto
            185 hlineto
            hintmask 1001000110000000
            -28 384 rlineto
            -1156 hlineto
            hintmask 1001001010000000
            -74 callgsubr
            hintmask 0011010010000000
            155 33 callsubr
            hintmask 1001000110000000
            -24 callgsubr
            endchar
          </CharString>
          <CharString index="51">
            510 0 237 -237 248 979 316 hstemhm
            259 338 711 347 146 callgsubr
            1087 hmoveto
            696 hlineto
            42 444 rlineto
            -176 hlineto
            hintmask 01111000
            -66 -186 -277 -19 169 136 175 291 5 245 rlinecurve
            417 9 -296 215 -403 hhcurveto
            -344 -353 -161 -469 -9 hvcurveto
            hintmask 10111000
            -6 -286 226 -285 166 -108 -303 6 rcurveline
            -71 204 rlineto
            -169 hlineto
            37 -444 rlineto
            713 218 hlineto
            -142 90 -113 248 271 vvcurveto
            247 103 153 260 259 89 -159 -213 -268 -51 -247 -170 -122 vhcurveto
            endchar
          </CharString>
          <CharString index="52">
            -124 -76 151 -182 hhcurveto
            -181 -100 -130 -85 -47 hvcurveto
            106 -110 rlineto
            36 34 49 60 80 hhcurveto
            return
          </CharString>
          <CharString index="53">
            175 1155 -68 callgsubr
            return
          </CharString>
          <CharString index="54">
            -58 133 rlineto
            -949 -376 179 hlineto
            63 206 329 17 -164 -185 rlineto
            return
          </CharString>
          <CharString index="55">
            -33 callsubr
            213 164 110 194 2 hvcurveto
            178 1 -110 130 -253 hhcurveto
            -1 hlineto
            -203 -181 -103 -199 -3 hvcurveto
            -170 -3 99 -140 274 hhcurveto
            5 156 rmoveto
            -113 -49 70 84 94 45 49 118 hvcurveto
            1 hlineto
            115 46 -65 -92 -96 -43 -44 -119 hvcurveto
            return
          </CharString>
          <CharString index="56">
            498 -11 285 367 477 vvcurveto
            463 -252 253 -500 vhcurveto
            return
          </CharString>
          <CharString index="57">
            rmoveto
            814 155 hlineto
            -243 24 rlineto
            897 vlineto
            -196 32 5 callsubr
            -118 -95 -156 -54 -119 -32 54 -165 rcurveline
            66 11 91 12 75 25 -1 -632 rcurveline
            -262 -23 rlineto
            return
          </CharString>
          <CharString index="58">
            -126 -47 -13 -89 vhcurveto
            -1 hlineto
            -14 -40 4 9 -28 hvcurveto
            return
          </CharString>
          <CharString index="59">
            185 35 179 165 callgsubr
            -218 115 -385 -154 -270 -55 -5 -86 vhcurveto
            36 -357 rlineto
            223 hlineto
            48 212 rlineto
            26 12 46 32 99 hhcurveto
            122 92 -62 -154 1 hvcurveto
            -219 1 -111 -74 -133 hhcurveto
            -106 -172 124 hlineto
            return
          </CharString>
          <CharString index="60">
            254 -44 callsubr
            return
          </CharString>
          <CharString index="61">
            63 -76 -125 35 -196 hhcurveto
            -1 hlineto
            -303 -240 -143 -238 -161 56 -134 181 -62 hvcurveto
            return
          </CharString>
          <CharString index="62">
            -9 callgsubr
            hintmask 10101101
            -402 37 callsubr
            hintmask 01101011
            109 -39 rlineto
            -1222 vlineto
            hintmask 10101011
            74 callsubr
            hintmask 01011011
            74 callgsubr
            hintmask 10101011
            -6 17 40 -10 37 hhcurveto
            424 202 304 323 hvcurveto
            -585 352 rmoveto
            103 68 -113 -275 -2 hvcurveto
            -341 -1 -94 -101 -107 hhcurveto
            -44 -35 15 19 -17 hvcurveto
            740 vlineto
            29 24 51 27 54 hhcurveto
            endchar
          </CharString>
          <CharString index="63">
            -30 callsubr
            hintmask 11010010
            -84 callgsubr
            rlineto
            return
          </CharString>
          <CharString index="64">
            hmoveto
            1248 hlineto
            66 392 -226 62 -134 -267 -389 -31 rlineto
            528 vlineto
            208 -7 37 -177 rlineto
            154 534 -155 hlineto
            -38 -164 -206 -7 rlineto
            hintmask 11101011
            511 vlineto
            359 -26 74 -210 rlineto
            185 hlineto
            hintmask 11110111
            -28 384 rlineto
            -1626 -162 hlineto
            255 -30 -466 -1155 -143 -25 rlineto
            -150 608 150 vlineto
            -150 24 82 236 rlineto
            436 -236 hlineto
            -151 -24 rlineto
            -58 910 rmoveto
            98 295 rlineto
            111 -765 -373 hlineto
            endchar
          </CharString>
          <CharString index="65">
            rmoveto
            679 1849 -224 9 -678 -1850 rlineto
            return
          </CharString>
          <CharString index="66">
            rmoveto
            -27 52 162 -35 105 hhcurveto
            348 177 151 196 156 -130 95 -189 -4 hvcurveto
            return
          </CharString>
          <CharString index="67">
            rmoveto
            22 callsubr
            hintmask 0001001001010000
            -51 callsubr
            hintmask 1000001001010000
            3 callgsubr
            hintmask 1000000101010000
            -74 callgsubr
            hintmask 1000010001010000
            145 -52 callgsubr
            hintmask 0010100001010000
            -49 callgsubr
            hintmask 0100001001010000
            -26 callgsubr
          </CharString>
          <CharString index="68">
            rmoveto
            160 92 109 109 60 hvcurveto
            -107 108 rlineto
            -43 -37 -33 -54 -92 hhcurveto
            return
          </CharString>
          <CharString index="69">
            rlineto
            -152 return
          </CharString>
          <CharString index="70">
            -1626 rmoveto
            1238 hlineto
            44 399 -201 55 rlineto
            hintmask 1001000100100000
            -132 -267 -384 -31 rlineto
            528 vlineto
            207 -5 37 -179 rlineto
            154 534 -154 hlineto
            -39 -166 -205 -5 rlineto
            510 vlineto
            351 -25 rlineto
            hintmask 0101000100100100
            77 -210 rlineto
            185 hlineto
            hintmask 1001100000100000
            -28 384 rlineto
            -1156 hlineto
            hintmask 1001000100100000
            -74 callgsubr
            hintmask 1001001000100000
            155 33 callsubr
            hintmask 0011010000100000
            -24 callgsubr
            endchar
          </CharString>
          <CharString index="71">
            rmoveto
            374 352 242 557 525 -293 237 -401 -286 -173 -74 -5 -115 hvcurveto
            2 -348 270 -13 51 195 rlineto
            53 23 72 39 96 hhcurveto
            205 97 -222 -315 16 hvcurveto
            -877 2 rlineto
            -12 -52 -9 -73 -156 vvcurveto
            -426 301 -166 307 vhcurveto
            48 187 rmoveto
            -198 -50 225 167 43 0 25 2 37 hvcurveto
            493 -1 rlineto
            -332 -71 -164 -176 vhcurveto
            endchar
          </CharString>
          <CharString index="72">
            -672 -23 callgsubr
            return
          </CharString>
          <CharString index="73">
            -93 -23 183 -183 207 953 -20 46 -20 return
          </CharString>
          <CharString index="74">
            rmoveto
            1 hlineto
            return
          </CharString>
          <CharString index="75">
            -94 callsubr
            endchar
          </CharString>
          <CharString index="76">
            668 rmoveto
            545 15 rlineto
            -382 -8 -132 -172 -205 hhcurveto
            -94 -16 35 30 -19 hvcurveto
            -71 275 -270 -8 -9 -416 rlineto
            -5 117 118 -63 223 hhcurveto
            513 308 288 503 454 -256 316 -487 -292 -133 -70 -8 -121 hvcurveto
            16 -385 235 4 79 236 rlineto
            27 19 41 39 118 hhcurveto
            181 110 -218 -286 29 hvcurveto
            -539 14 rlineto
            return
          </CharString>
          <CharString index="77">
            hmoveto
            860 -45 callgsubr
            -213 23 rlineto
            445 vlineto
            377 715 rlineto
            return
          </CharString>
          <CharString index="78">
            1486 -23 callsubr
          </CharString>
          <CharString index="79">
            -20 callgsubr
            6 151 rmoveto
            -145 -94 149 417 -9 hvcurveto
            497 hlineto
            -369 -12 -89 -197 -148 hhcurveto
            3 1264 rmoveto
            147 94 -126 -428 7 hvcurveto
            -498 hlineto
            377 10 88 177 152 hhcurveto
            return
          </CharString>
          <CharString index="80">
            rmoveto
            -261 4 153 -158 306 hhcurveto
            350 220 210 389 346 -153 245 -414 -205 -193 -113 -62 -56 hvcurveto
            62 -140 rlineto
            32 62 124 44 107 hhcurveto
            167 83 -80 -232 12 hvcurveto
            -611 hlineto
            -9 -55 -10 -68 1 -97 rrcurveto
            495 -264 rmoveto
            -92 -19 100 153 hvcurveto
            17 1 48 17 vvcurveto
            245 hlineto
            -295 -8 -47 -40 -80 hhcurveto
            endchar
          </CharString>
          <CharString index="81">
            152 -8 32 -80 -65 vvcurveto
            -116 -97 -59 -164 -50 -127 14 28 -51 vhcurveto
            return
          </CharString>
          <CharString index="82">
            -510 271 260 -21 991 147 return
          </CharString>
          <CharString index="83">
            79 callsubr
            108 callgsubr
            778 187 30 -20 295 149 callgsubr
            return
          </CharString>
          <CharString index="84">
            -93 callgsubr
            endchar
          </CharString>
          <CharString index="85">
            rmoveto
            31 -2 30 -5 28 vhcurveto
            193 284 -77 hlineto
            -90 -88 -56 -47 -35 hvcurveto
            return
          </CharString>
          <CharString index="86">
            rmoveto
            -59 callgsubr
            hintmask 10101010
            1331 vlineto
            hintmask 11001010
            6 callsubr
            hintmask 10101010
            -3 callsubr
            hintmask 11001010
            20 callgsubr
            hintmask 10101010
            -4 callsubr
            endchar
          </CharString>
          <CharString index="87">
            5 -27 -31 5 -29 hhcurveto
            -426 -201 -301 -324 return
          </CharString>
          <CharString index="88">
            4 callsubr
            -155 -21 return
          </CharString>
          <CharString index="89">
            -15 callgsubr
            endchar
          </CharString>
          <CharString index="90">
            -24 -38 callsubr
            return
          </CharString>
          <CharString index="91">
            456 hintmask 11010100
            750 -11 callsubr
            return
          </CharString>
          <CharString index="92">
            656 1538 rlineto
            -237 hlineto
            295 -1065 rmoveto
            174 19 130 103 99 12 -167 -147 1 vhcurveto
            -175 1 -14 -131 -105 hhcurveto
            -99 -17 184 132 hvcurveto
            -311 -15 rmoveto
            117 callgsubr
            251 196 164 296 251 -102 201 -307 -255 -191 -168 -297 vhcurveto
            endchar
          </CharString>
          <CharString index="93">
            rmoveto
            443 2 270 334 477 -93 callsubr
            return
          </CharString>
          <CharString index="94">
            -60 callgsubr
            -149 149 return
          </CharString>
          <CharString index="95">
            -125 -64 158 -182 hhcurveto
            -182 -94 -144 -86 -49 hvcurveto
            endchar
          </CharString>
          <CharString index="96">
            -23 -104 callsubr
            return
          </CharString>
          <CharString index="97">
            rmoveto
            -9 39 113 -3 40 hhcurveto
            372 219 153 259 170 -93 130 -245 -111 -97 -36 -29 -47 hvcurveto
            41 243 rlineto
            492 hlineto
            15 217 rlineto
            -700 hlineto
            -55 -564 94 -64 rlineto
            21 27 82 33 80 hhcurveto
            120 64 -57 -94 -146 -120 -89 -207 -40 -49 4 3 -24 hvcurveto
            return
          </CharString>
          <CharString index="98">
            275 195 134 200 -1 hvcurveto
            -1 145 -112 79 -127 63 rrcurveto
            return
          </CharString>
          <CharString index="99">
            -30 rlineto
            -1155 vlineto
            return
          </CharString>
          <CharString index="100">
            29 rlineto
            162 return
          </CharString>
          <CharString index="101">
            -75 callsubr
            hstemhm
            227 416 return
          </CharString>
          <CharString index="102">
            rmoveto
            251 196 163 297 251 -101 201 -308 -255 -191 -168 -297 -243 135 -204 273 hvcurveto
            20 145 rmoveto
            -100 -16 185 131 175 19 129 102 100 12 -166 -147 hvcurveto
            -176 1 -13 -131 -105 hhcurveto
            164 -775 rmoveto
            237 hlineto
            return
          </CharString>
          <CharString index="103">
            160 -18 callgsubr
            -160 -23 rlineto
            return
          </CharString>
          <CharString index="104">
            173 -29 rlineto
            -879 vlineto
            -116 260 rlineto
            return
          </CharString>
          <CharString index="105">
            107 -16 157 1219 162 return
          </CharString>
          <CharString index="106">
            -71 24 -103 37 -75 569 -319 54 rlinecurve
            354 494 180 -70 callsubr
            -592 -74 callgsubr
            129 -28 -302 -492 rlineto
            -114 return
          </CharString>
          <CharString index="107">
            56 hmoveto
            739 151 hlineto
            -199 21 rlineto
            778 239 187 -239 193 vlineto
            78 25 34 70 75 92 -58 -33 25 vhcurveto
            351 vlineto
            5 -11 -44 18 -70 hhcurveto
            -305 -251 -253 -275 hvcurveto
            -63 vlineto
            -143 -43 rlineto
            -141 143 -777 vlineto
            -146 -22 rlineto
            hintmask 00000000
            return
          </CharString>
          <CharString index="108">
            120 22 -11 callgsubr
            -624 -27 callgsubr
            114 -23 rlineto
            -812 -304 812 vlineto
            109 61 callsubr
            -606 -27 callgsubr
            109 -23 rlineto
            -812 -305 812 131 callgsubr
            -629 -27 callgsubr
            120 -26 rlineto
            -792 vlineto
            -123 -25 rlineto
            endchar
          </CharString>
          <CharString index="109">
            109 -39 rlineto
            -723 vlineto
            return
          </CharString>
          <CharString index="110">
            158 495 163 598 152 return
          </CharString>
          <CharString index="111">
            -76 callsubr
            176 return
          </CharString>
          <CharString index="112">
            rlineto
            -5 hlineto
            return
          </CharString>
          <CharString index="113">
            151 -7 callsubr
            -544 -74 callgsubr
            return
          </CharString>
          <CharString index="114">
            190 -70 callsubr
            -754 -74 callgsubr
            return
          </CharString>
          <CharString index="115">
            -91 callsubr
            endchar
          </CharString>
          <CharString index="116">
            0 152 return
          </CharString>
          <CharString index="117">
            -37 -248 -319 -16 130 167 334 529 -55 62 rlineto
            -279 hlineto
            -127 -249 -190 -402 -79 -142 rrcurveto
            return
          </CharString>
          <CharString index="118">
            587 vlineto
            5 14 32 4 57 hhcurveto
            147 64 -77 -196 -229 -73 -101 -125 hvcurveto
            return
          </CharString>
          <CharString index="119">
            85 callsubr
            -11 87 callsubr
            return
          </CharString>
          <CharString index="120">
            406 -712 rlineto
            -443 vlineto
            -203 -24 rlineto
            return
          </CharString>
          <CharString index="121">
            -72 callsubr
            endchar
          </CharString>
          <CharString index="122">
            333 vlineto
            137 33 rlineto
            155 -701 -155 vlineto
            149 -32 rlineto
            -334 vlineto
            -131 -58 -77 -146 1 vhcurveto
            return
          </CharString>
          <CharString index="123">
            0 152 -152 -54 callsubr
            return
          </CharString>
          <CharString index="124">
            139 56 rmoveto
            -17 29 147 -62 299 hhcurveto
            392 235 270 357 406 -189 158 -249 -117 -103 -59 -63 -58 hvcurveto
            588 vlineto
            -76 46 5 callsubr
            -439 -53 rlineto
            -135 vlineto
            134 -30 rlineto
            return
          </CharString>
          <CharString index="125">
            -3 138 179 -114 287 hhcurveto
            322 186 174 226 80 -32 73 -25 21 hvcurveto
            -396 hlineto
            35 -28 31 -76 -80 vvcurveto
            -128 -54 -69 -183 -120 -101 36 12 -75 vhcurveto
            77 50 55 73 166 vvcurveto
            return
          </CharString>
          <CharString index="126">
            346 1 219 hstem
            142 1485 vstem
            162 1 rmoveto
            1443 hlineto
            22 40 -753 1475 rlineto
            -49 hlineto
            -683 -1476 rlineto
            304 180 rmoveto
            319 733 358 -733 rlineto
            endchar
          </CharString>
          <CharString index="127">
            rmoveto
            671 220 -671 hlineto
            endchar
          </CharString>
          <CharString index="128">
            768 -33 callsubr
            103 79 77 98 hvcurveto
            165 -129 1 186 vvcurveto
            194 93 115 46 46 vhcurveto
            39 vlineto
            -91 78 rlineto
            -2 hlineto
            -148 -77 -207 -258 -325 vvcurveto
            -176 103 -163 152 vhcurveto
            return
          </CharString>
          <CharString index="129">
            354 hlineto
            65 145 -13 -3 112 hvcurveto
            return
          </CharString>
          <CharString index="130">
            1191 hlineto
            53 608 -225 28 rlineto
            return
          </CharString>
          <CharString index="131">
            -153 -23 157 877 157 return
          </CharString>
          <CharString index="132">
            rmoveto
            694 -459 108 165 -377 375 377 381 -108 170 -694 -467 rlineto
            return
          </CharString>
          <CharString index="133">
            hstemhm
            45 387 -354 395 -328 267 return
          </CharString>
          <CharString index="134">
            -23 29 callgsubr
            return
          </CharString>
          <CharString index="135">
            238 -196 279 288 317 -283 211 return
          </CharString>
          <CharString index="136">
            106 26 -86 -90 -91 -29 -108 -133 -74 -53 19 37 -21 hvcurveto
            -43 177 rlineto
            -232 hlineto
            endchar
          </CharString>
          <CharString index="137">
            187 -23 rlineto
            -426 -73 -348 -102 -54 -38 4 6 -30 vhcurveto
            24 -205 rlineto
            -8 29 42 -6 47 hhcurveto
            120 61 62 81 31 hvcurveto
            58 112 62 272 361 vvcurveto
            95 249 return
          </CharString>
          <CharString index="138">
            182 46 -141 -124 -188 -57 -127 -139 -94 -55 30 28 -26 hvcurveto
            -73 301 rlineto
            return
          </CharString>
          <CharString index="139">
            119 138 61 104 64 hvcurveto
            -46 vlineto
            return
          </CharString>
          <CharString index="140">
            -31 -63 callsubr
            return
          </CharString>
          <CharString index="141">
            -23 212 -212 238 312 149 -110 144 199 258 -156 156 return
          </CharString>
          <CharString index="142">
            -79 67 -93 95 vhcurveto
            return
          </CharString>
          <CharString index="143">
            123 -7 callgsubr
            -507 -27 callgsubr
            160 -23 -217 -550 -29 -108 -31 107 -212 550 162 -7 callgsubr
            -710 -27 callgsubr
            114 -24 return
          </CharString>
          <CharString index="144">
            -49 rlineto
            -184 vlineto
            return
          </CharString>
          <CharString index="145">
            rmoveto
            -694 467 -108 -170 377 -381 -377 -375 108 -165 return
          </CharString>
          <CharString index="146">
            20 0 43 callgsubr
            return
          </CharString>
          <CharString index="147">
            hstemhm
            209 409 446 455 return
          </CharString>
          <CharString index="148">
            379 170 380 return
          </CharString>
          <CharString index="149">
            -161 -23 159 1254 153 return
          </CharString>
          <CharString index="150">
            365 169 164 244 -1 hvcurveto
            return
          </CharString>
          <CharString index="151">
            9 callsubr
            1208 162 return
          </CharString>
          <CharString index="152">
            rmoveto
            696 220 -696 hlineto
            return
          </CharString>
          <CharString index="153">
            131 -7 callgsubr
            -655 -27 callgsubr
            120 -23 rlineto
            -297 -369 297 131 callgsubr
            -653 163 callsubr
            return
          </CharString>
          <CharString index="154">
            -155 vlineto
            109 -20 rlineto
            -191 vlineto
            -124 -38 -41 -101 -112 -34 49 96 return
          </CharString>
          <CharString index="155">
            773 -16 158 -142 150 -150 75 callsubr
            753 161 416 -68 callgsubr
            -157 157 return
          </CharString>
          <CharString index="156">
            -12 61 66 -7 74 hhcurveto
            443 2 270 334 477 vvcurveto
            322 -93 239 -230 115 vhcurveto
            94 246 -171 50 -92 -239 rlineto
            return
          </CharString>
          <CharString index="157">
            -309 24 rlineto
            463 vlineto
            216 -8 46 -195 rlineto
            160 579 -162 hlineto
            -44 -190 -216 -5 rlineto
            553 vlineto
            327 -32 rlineto
            return
          </CharString>
          <CharString index="158">
            208 169 vlineto
            1 196 -170 -9 rlineto
            247 vlineto
            -222 -12 rlineto
            return
          </CharString>
          <CharString index="159">
            108 callsubr
            vlineto
            702 753 rmoveto
            156 63 -93 -207 hvcurveto
            return
          </CharString>
          <CharString index="160">
            148 -70 callsubr
            -720 -74 callgsubr
            return
          </CharString>
          <CharString index="161">
            -515 208 -187 -21 return
          </CharString>
          <CharString index="162">
            -3 29 29 -2 31 hhcurveto
            325 272 170 439 271 -115 176 -181 82 hvcurveto
            76 242 -164 47 -81 -243 rlineto
            return
          </CharString>
          <CharString index="163">
            402 305 330 408 401 306 -322 -410 -403 -306 -330 -401 -402 -311 323 410 vhcurveto
            return
          </CharString>
          <CharString index="164">
            531 152 189 285 200 -144 131 -259 9 hvcurveto
            return
          </CharString>
          <CharString index="165">
            -265 0 172 callgsubr
            return
          </CharString>
          <CharString index="166">
            -59 -23 164 147 callsubr
            return
          </CharString>
          <CharString index="167">
            131 91 -151 176 hhcurveto
            return
          </CharString>
          <CharString index="168">
            23 -11 callgsubr
            return
          </CharString>
          <CharString index="169">
            333 vlineto
            137 33 rlineto
            155 -702 -155 vlineto
            150 -33 rlineto
            -333 vlineto
            -131 -58 -77 -147 1 vhcurveto
            -142 1 return
          </CharString>
          <CharString index="170">
            409 -105 callsubr
            return
          </CharString>
          <CharString index="171">
            -103 22 rlineto
            111 vlineto
            -7 105 147 153 159 -369 rlineto
            return
          </CharString>
          <CharString index="172">
            395 -349 450 return
          </CharString>
          <CharString index="173">
            -419 0 91 callsubr
            return
          </CharString>
          <CharString index="174">
            rmoveto
            -79 callgsubr
            endchar
          </CharString>
          <CharString index="175">
            132 68 -158 176 hhcurveto
            return
          </CharString>
          <CharString index="176">
            151 -151 return
          </CharString>
          <CharString index="177">
            118 vlineto
            86 -7 callgsubr
            -590 -27 callgsubr
            97 166 callsubr
            -336 147 -100 251 vhcurveto
            return
          </CharString>
          <CharString index="178">
            -100 21 rlineto
            552 vlineto
            55 -3 50 -7 45 vhcurveto
            33 38 57 37 63 hhcurveto
            92 35 -50 -180 hvcurveto
            -542 vlineto
            return
          </CharString>
          <CharString index="179">
            489 rmoveto
            -51 -413 rlineto
            -9 105 125 -79 256 hhcurveto
            return
          </CharString>
          <CharString index="180">
            188 hstemhm
            555 311 -269 355 return
          </CharString>
          <CharString index="181">
            -112 -27 rlineto
            -142 658 142 vlineto
            return
          </CharString>
          <CharString index="182">
            90 callgsubr
            -154 -21 return
          </CharString>
          <CharString index="183">
            229 -153 -21 96 229 hstemhm
            return
          </CharString>
          <CharString index="184">
            -319 -23 147 895 147 return
          </CharString>
          <CharString index="185">
            rmoveto
            21 -29 44 -81 -69 vvcurveto
            return
          </CharString>
          <CharString index="186">
            0 69 callsubr
            return
          </CharString>
          <CharString index="187">
            vlineto
            137 61 callsubr
            -1411 -27 callgsubr
            132 -23 rlineto
            -792 vlineto
            -126 -24 rlineto
            endchar
          </CharString>
          <CharString index="188">
            1033 -23 205 -187 -21 26 172 callgsubr
            -127 157 -10 -20 return
          </CharString>
          <CharString index="189">
            347 197 117 273 211 -150 128 -331 -40 -104 -3 -3 -65 hvcurveto
            259 vlineto
            return
          </CharString>
          <CharString index="190">
            12 callsubr
            -67 callgsubr
            return
          </CharString>
          <CharString index="191">
            -180 -153 -113 -34 14 8 -23 hvcurveto
            18 -167 rlineto
            -13 32 68 -25 114 hhcurveto
            345 return
          </CharString>
          <CharString index="192">
            -68 callgsubr
            -146 157 return
          </CharString>
          <CharString index="193">
            -157 -78 -11 -123 hhcurveto
            -340 hlineto
            return
          </CharString>
          <CharString index="194">
            -20 40 callsubr
            return
          </CharString>
          <CharString index="195">
            170 137 callgsubr
            return
          </CharString>
          <CharString index="196">
            161 -132 133 return
          </CharString>
          <CharString index="197">
            0 156 835 168 callgsubr
            389 305 388 304 390 vstem
            85 hmoveto
            return
          </CharString>
          <CharString index="198">
            69 callsubr
            172 978 -20 37 -20 21 -20 return
          </CharString>
          <CharString index="199">
            760 -563 412 hintmask 00000000
            return
          </CharString>
          <CharString index="200">
            -38 callsubr
            721 -31 callgsubr
            return
          </CharString>
          <CharString index="201">
            104 5 callgsubr
            return
          </CharString>
          <CharString index="202">
            -23 232 793 166 return
          </CharString>
          <CharString index="203">
            -112 -20 rlineto
            return
          </CharString>
          <CharString index="204">
            -154 79 callsubr
            128 callsubr
            return
          </CharString>
          <CharString index="205">
            79 callsubr
            107 callsubr
            777 187 305 149 callgsubr
            return
          </CharString>
          <CharString index="206">
            35 callsubr
            endchar
          </CharString>
          <CharString index="207">
            rmoveto
            -179 -49 143 152 208 61 123 144 73 24 0 -7 40 hvcurveto
            return
          </CharString>
          <CharString index="208">
            9 callsubr
            358 161 320 168 callgsubr
            402 369 404 vstem
            return
          </CharString>
          <CharString index="209">
            16 callsubr
            hstemhm
            209 416 return
          </CharString>
          <CharString index="210">
            202 684 rlineto
            -347 hlineto
            -101 -684 rlineto
            return
          </CharString>
          <CharString index="211">
            90 115 hvcurveto
            hintmask 00100110
            91 -54 79 return
          </CharString>
          <CharString index="212">
            712 675 rmoveto
            -92 -192 rlineto
            return
          </CharString>
          <CharString index="213">
            -540 231 -180 -21 487 return
          </CharString>
          <CharString index="214">
            -76 callsubr
            173 return
          </CharString>
          <CharString index="215">
            -149 63 callgsubr
            return
          </CharString>
          <CharString index="216">
            -558 -186 1966 hstem
            306 253 vstem
            306 -186 rmoveto
            253 return
          </CharString>
          <CharString index="217">
            -790 vlineto
            -121 -24 rlineto
            -636 402 rmoveto
            152 40 -113 -96 hvcurveto
            return
          </CharString>
          <CharString index="218">
            102 -25 rlineto
            -368 vlineto
            -25 -29 -64 -20 -61 hhcurveto
            -121 -28 49 246 hvcurveto
            return
          </CharString>
          <CharString index="219">
            9 callsubr
            522 118 callsubr
            return
          </CharString>
          <CharString index="220">
            rmoveto
            232 hlineto
            56 904 rlineto
            -343 hlineto
            return
          </CharString>
          <CharString index="221">
            444 -53 551 hintmask 00000000
            return
          </CharString>
          <CharString index="222">
            -600 -27 callgsubr
            return
          </CharString>
          <CharString index="223">
            -62 callgsubr
            6 return
          </CharString>
          <CharString index="224">
            -184 26 rlineto
            529 52 vlineto
            return
          </CharString>
          <CharString index="225">
            196 490 162 return
          </CharString>
          <CharString index="226">
            169 vlineto
            94 18 rlineto
            return
          </CharString>
          <CharString index="227">
            702 79 callsubr
            172 772 218 0 -20 25 -20 return
          </CharString>
          <CharString index="228">
            142 580 172 509 147 return
          </CharString>
          <CharString index="229">
            464 681 rlineto
            return
          </CharString>
          <CharString index="230">
            hstemhm
            215 220 return
          </CharString>
          <CharString index="231">
            129 callsubr
            127 callgsubr
            -59 704 return
          </CharString>
          <CharString index="232">
            45 callsubr
            endchar
          </CharString>
          <CharString index="233">
            133 -30 rlineto
            return
          </CharString>
          <CharString index="234">
            -329 -293 195 699 187 686 188 hstemhm
            return
          </CharString>
          <CharString index="235">
            176 1154 87 callgsubr
            return
          </CharString>
          <CharString index="236">
            -101 44 callsubr
            return
          </CharString>
          <CharString index="237">
            -68 callgsubr
            hstemhm
            209 return
          </CharString>
          <CharString index="238">
            9 callsubr
            792 218 return
          </CharString>
          <CharString index="239">
            hstemhm
            40 413 return
          </CharString>
          <CharString index="240">
            -1 -214 rlineto
            return
          </CharString>
          <CharString index="241">
            -16 166 -150 -19 callsubr
            return
          </CharString>
          <CharString index="242">
            607 -171 -169 329 -328 -177 19 rlineto
            return
          </CharString>
          <CharString index="243">
            83 -23 151 -111 -21 1396 151 -20 -20 return
          </CharString>
          <CharString index="244">
            143 430 return
          </CharString>
          <CharString index="245">
            -88 callgsubr
            hintmask 0001001010000000
            return
          </CharString>
          <CharString index="246">
            145 -16 166 -150 4 callsubr
            return
          </CharString>
          <CharString index="247">
            -330 -23 166 348 179 347 151 return
          </CharString>
          <CharString index="248">
            -153 -23 157 404 108 365 157 return
          </CharString>
          <CharString index="249">
            rlineto
            162 -710 -74 callgsubr
            return
          </CharString>
          <CharString index="250">
            367 267 113 251 return
          </CharString>
          <CharString index="251">
            136 828 227 0 -20 return
          </CharString>
          <CharString index="252">
            hstem
            230 885 vstem
            230 return
          </CharString>
          <CharString index="253">
            154 hintmask 0000000010100000
            return
          </CharString>
          <CharString index="254">
            1235 162 return
          </CharString>
          <CharString index="255">
            163 vlineto
            -18 -45 return
          </CharString>
          <CharString index="256">
            -149 -24 rlineto
            return
          </CharString>
          <CharString index="257">
            0 -23 187 496 188 537 153 return
          </CharString>
          <CharString index="258">
            493 380 rmoveto
            154 68 37 38 90 hvcurveto
            return
          </CharString>
          <CharString index="259">
            -26 -74 -1 8 -16 hvcurveto
            return
          </CharString>
          <CharString index="260">
            304 294 304 return
          </CharString>
          <CharString index="261">
            208 619 162 return
          </CharString>
          <CharString index="262">
            96 callsubr
            endchar
          </CharString>
          <CharString index="263">
            -23 152 546 208 498 157 return
          </CharString>
          <CharString index="264">
            137 -27 rlineto
            -792 vlineto
            -135 -25 rlineto
            return
          </CharString>
          <CharString index="265">
            85 249 -3 hvcurveto
            119 callsubr
            return
          </CharString>
          <CharString index="266">
            154 callsubr
            hstemhm
            136 415 return
          </CharString>
          <CharString index="267">
            168 hstem
            209 413 445 413 return
          </CharString>
          <CharString index="268">
            157 80 callgsubr
            return
          </CharString>
          <CharString index="269">
            110 55 hvcurveto
            101 204 return
          </CharString>
          <CharString index="270">
            -27 callgsubr
            131 -24 rlineto
            return
          </CharString>
          <CharString index="271">
            rmoveto
            56 52 68 50 92 hhcurveto
            return
          </CharString>
          <CharString index="272">
            hstemhm
            208 401 return
          </CharString>
          <CharString index="273">
            63 callgsubr
            vlineto
            return
          </CharString>
          <CharString index="274">
            -70 callsubr
            vlineto
            return
          </CharString>
          <CharString index="275">
            -729 -74 callgsubr
            return
          </CharString>
          <CharString index="276">
            -330 255 vlineto
            return
          </CharString>
          <CharString index="277">
            90 115 hvcurveto
            hintmask 0000101010000000
            91 -54 79 return
          </CharString>
          <CharString index="278">
            90 115 hvcurveto
            hintmask 0000011010000000
            91 -54 79 return
          </CharString>
          <CharString index="279">
            541 rmoveto
            137 70 -46 -145 hvcurveto
            return
          </CharString>
          <CharString index="280">
            -77 68 -39 88 86 80 46 56 63 vhcurveto
            return
          </CharString>
          <CharString index="281">
            999 hstem
            174 309 vstem
            429 return
          </CharString>
          <CharString index="282">
            -111 -21 rlineto
            return
          </CharString>
        <CharString name=".notdef">
          347 0 252 -231 -21 hstemhm
          177 262 894 260 hintmask 00000000
          hintmask 01110000
          440 387 rmoveto
          343 318 -344 338 114 116 333 -352 328 351 119 -116 -348 -334 348 -343 rlineto
          hintmask 10110000
          -113 -113 -337 353 -324 -353 rlineto
          -382 -252 rmoveto
          1416 1416 -1416 hlineto
          endchar
        </CharString>
        <CharString name="A">
          -33 callgsubr
          hstemhm
          -43 575 265 697 hintmask 00000000
          hintmask 11111000
          -42 -106 callsubr
          endchar
        </CharString>
        <CharString name="AE">
          542 58 callgsubr
          hstemhm
          -159 134 callgsubr
          666 -43 callsubr
        </CharString>
        <CharString name="AEacute">
          542 58 callgsubr
          127 callgsubr
          817 414 -368 538 75 154 hintmask 0000010100000000
          1007 -71 callgsubr
          -67 callgsubr
          -197 -1695 rmoveto
          1248 hlineto
          66 392 -226 62 -134 -267 -389 -31 rlineto
          528 vlineto
          208 -7 37 -177 rlineto
          154 534 -155 hlineto
          -38 -164 -206 -7 rlineto
          hintmask 1111001010000000
          511 vlineto
          359 -26 74 -210 rlineto
          185 hlineto
          hintmask 1110101010000000
          -28 384 rlineto
          -1626 -162 hlineto
          255 -30 -466 -1155 -143 -25 rlineto
          -150 608 150 vlineto
          -150 24 82 236 rlineto
          436 -236 hlineto
          -151 -24 rlineto
          -58 910 rmoveto
          98 295 rlineto
          111 -765 -373 hlineto
          endchar
        </CharString>
        <CharString name="Aacute">
          -33 callgsubr
          211 -21 hstemhm
          -41 575 39 538 -312 697 hintmask 00000000
          hintmask 11101010
          -40 -106 callsubr
          hintmask 00010100
          236 1028 -96 callsubr
          endchar
        </CharString>
        <CharString name="Abreve">
          -33 callgsubr
          110 232 hstemhm
          -41 575 -208 187 286 697 -556 194 hintmask 00000000
          hintmask 11101010
          -40 -106 callsubr
          hintmask 00010101
          250 1050 8 callsubr
        </CharString>
        <CharString name="Acircumflex">
          -33 callgsubr
          221 -21 hstemhm
          -41 575 -233 857 -359 697 hintmask 00000000
          hintmask 11101010
          -40 -106 callsubr
          hintmask 00000000
          -54 1031 -82 callsubr
          hintmask 00010100
          30 callgsubr
        </CharString>
        <CharString name="Adieresis">
          -33 callgsubr
          121 5 callgsubr
          -41 575 -269 379 155 697 -682 380 -67 callgsubr
          hintmask 1110010100000000
          -40 -106 callsubr
          -67 callgsubr
          -55 1061 rmoveto
          1 hlineto
          152 65 170 callsubr
          -128 138 callsubr
          -86 callsubr
          hintmask 0000101010000000
          91 -54 79 -129 138 callsubr
          99 callsubr
        </CharString>
        <CharString name="Agrave">
          -33 callgsubr
          211 -21 hstemhm
          -41 575 -164 538 -109 697 hintmask 00000000
          hintmask 11101010
          -40 -106 callsubr
          hintmask 00010100
          281 1028 18 callgsubr
        </CharString>
        <CharString name="Amacron">
          -33 callgsubr
          193 220 hstemhm
          -41 575 -156 696 -275 697 hintmask 00000000
          hintmask 11101010
          -40 -106 callsubr
          hintmask 00010100
          -103 1133 125 callsubr
        </CharString>
        <CharString name="Aogonek">
          42 54 callsubr
          515 -12 callgsubr
          hstemhm
          -43 575 -25 671 -381 697 -618 73 -67 callgsubr
          hintmask 0111110010000000
          -42 hmoveto
          574 -45 callgsubr
          -152 18 56 222 rlineto
          436 hlineto
          58 -217 rlineto
          hintmask 0111110100000000
          -133 63 callgsubr
          384 vlineto
          hintmask 0111110010000000
          -182 -52 -123 -131 -122 vvcurveto
          -124 115 -86 182 vhcurveto
          hintmask 0111101000000000
          84 124 24 43 57 hvcurveto
          hintmask 1011101000000000
          148 callsubr
          -24 -4 -47 hhcurveto
          -89 -55 37 57 77 80 90 133 46 hvcurveto
          hintmask 0111110100000000
          103 -45 callgsubr
          -107 23 rlineto
          hintmask 0111110010000000
          -438 1350 rlineto
          hintmask 0111101000000000
          -442 hlineto
          -437 -1349 rlineto
          hintmask 0111110010000000
          -115 -24 rlineto
          671 1001 rmoveto
          24 126 22 -126 155 -588 rlineto
          -348 hlineto
          endchar
        </CharString>
        <CharString name="Aring">
          42 9 callsubr
          240 173 903 130 -73 -20 377 132 hstemhm
          -43 575 -170 224 211 697 -607 224 -67 callgsubr
          hintmask 1101010100000000
          -42 -106 callsubr
          hintmask 0010101010000000
          257 1033 -51 callgsubr
        </CharString>
        <CharString name="Atilde">
          -33 callgsubr
          123 76 callsubr
          -41 575 -290 979 -424 697 -67 callgsubr
          hintmask 1110001010000000
          -40 -106 callsubr
          -67 callgsubr
          430 1063 -39 callsubr
          hintmask 0001000100000000
          -55 callsubr
          hintmask 0000110100000000
          60 callsubr
          endchar
        </CharString>
        <CharString name="B">
          -73 callsubr
        </CharString>
        <CharString name="C">
          59 callsubr
          hstem
          46 467 vstem
          778 -23 -97 callgsubr
          endchar
        </CharString>
        <CharString name="CR">
          -1423 endchar
        </CharString>
        <CharString name="Cacute">
          59 callsubr
          178 -21 hstemhm
          46 467 120 538 hintmask 11010000
          778 -23 -97 callgsubr
          hintmask 00101000
          -1 1616 -96 callsubr
          endchar
        </CharString>
        <CharString name="Ccaron">
          59 callsubr
          99 -21 hstemhm
          46 467 -129 837 hintmask 11010000
          778 -23 -97 callgsubr
          hintmask 00101000
          -89 1639 -32 callgsubr
        </CharString>
        <CharString name="Ccedilla">
          -59 33 callgsubr
          489 162 147 callsubr
          hstemhm
          46 467 -13 471 -251 590 hintmask 00000000
          hintmask 00111101
          1273 56 rmoveto
          33 354 -234 20 -98 -230 rlineto
          -31 -28 -36 -28 -105 hhcurveto
          -194 -98 250 381 414 110 190 176 91 38 -23 -19 18 hvcurveto
          78 -343 rlineto
          259 hlineto
          27 502 rlineto
          -85 -202 45 -207 hhcurveto
          -445 -325 -288 -510 -427 201 -291 425 -40 hvcurveto
          22 -38 26 -61 -53 vvcurveto
          hintmask 10011101
          -49 callsubr
          hintmask 00111101
          133 callsubr
          hintmask 01111010
          -62 callgsubr
          5 117 -72 104 -50 55 rrcurveto
          hintmask 00111101
          202 11 83 51 133 15 rrcurveto
          endchar
        </CharString>
        <CharString name="Ccircumflex">
          59 callsubr
          188 -21 hstemhm
          46 467 -150 857 hintmask 11010000
          778 -23 -97 callgsubr
          hintmask 00000000
          -289 1619 -82 callsubr
          hintmask 00101000
          30 callgsubr
        </CharString>
        <CharString name="Cdotaccent">
          59 callsubr
          100 363 hstemhm
          46 467 73 417 hintmask 00101000
          777 1638 -93 callgsubr
          hintmask 11010000
          1 -1661 -97 callgsubr
          endchar
        </CharString>
        <CharString name="D">
          145 134 callsubr
          1330 83 callsubr
          hintmask 0001001011000000
          60 hmoveto
          22 callsubr
          hintmask 1000001011000000
          -51 callsubr
          hintmask 1000000111000000
          3 callgsubr
          hintmask 1000010011000000
          -74 callgsubr
          hintmask 0010100011000000
          145 -52 callgsubr
          hintmask 0100001011000000
          -49 callgsubr
          hintmask 1000001011000000
          -26 callgsubr
        </CharString>
        <CharString name="Dcaron">
          145 134 callsubr
          1330 85 callsubr
          -11 -20 135 -21 hstemhm
          209 409 -240 837 -151 455 hintmask 0000000010100000
          683 1616 -82 callgsubr
          -67 callgsubr
          -318 -1906 -40 callsubr
        </CharString>
        <CharString name="Dcroat">
          139 callsubr
          523 163 468 70 callgsubr
          51 699 rmoveto
          158 hlineto
          hintmask 0011001011000000
          -523 0 callgsubr
          -468 -158 vlineto
          hintmask 1001001011000000
          567 497 rmoveto
          3 13 34 14 62 hhcurveto
          256 81 -268 -346 -440 -118 -171 -203 -1 hvcurveto
          -49 -47 6 15 -29 hvcurveto
          528 228 163 -228 vlineto
          endchar
        </CharString>
        <CharString name="Delta">
          19 callsubr
        </CharString>
        <CharString name="Deltagreek">
          19 callsubr
        </CharString>
        <CharString name="E">
          -57 callsubr
        </CharString>
        <CharString name="Eacute">
          -90 callgsubr
          194 -21 8 callgsubr
          -109 538 -185 146 callsubr
          660 -71 callgsubr
          -67 callgsubr
          -456 -1695 -99 callsubr
        </CharString>
        <CharString name="Ebreve">
          -90 callgsubr
          93 232 8 callgsubr
          -326 187 383 154 -110 194 hintmask 0000000010101000
          704 1615 -91 callsubr
          -67 callgsubr
          -644 -1615 -99 callsubr
        </CharString>
        <CharString name="Ecaron">
          -90 callgsubr
          115 -21 8 callgsubr
          -335 837 -258 146 callsubr
          595 1616 -82 callgsubr
          -67 callgsubr
          -230 -1906 -99 callsubr
        </CharString>
        <CharString name="Ecircumflex">
          -90 callgsubr
          204 -21 8 callgsubr
          -356 857 -257 154 -67 callgsubr
          hintmask 1001000101000000
          60 hmoveto
          1238 hlineto
          44 399 -201 55 rlineto
          hintmask 0101000101010000
          -132 -267 -384 -31 rlineto
          528 vlineto
          207 -5 37 -179 rlineto
          154 534 -154 hlineto
          -39 -166 -205 -5 rlineto
          510 vlineto
          351 -25 rlineto
          hintmask 1001100001000000
          77 -210 rlineto
          185 hlineto
          hintmask 1001000101000000
          -28 384 rlineto
          -1156 hlineto
          hintmask 1001001001000000
          -74 callgsubr
          hintmask 0011010001000000
          155 33 callsubr
          hintmask 1001000101000000
          -24 callgsubr
          -67 callgsubr
          335 84 callgsubr
          hintmask 0000000010100000
          30 callgsubr
        </CharString>
        <CharString name="Edieresis">
          -90 callgsubr
          94 callsubr
          209 416 -389 41 callsubr
          -296 154 -67 callgsubr
          hintmask 0000000001011000
          397 -14 callgsubr
          -887 -37 callsubr
        </CharString>
        <CharString name="Edotaccent">
          -90 callgsubr
          116 363 8 callgsubr
          -133 417 -40 146 callsubr
          683 1638 -93 callgsubr
          -67 callgsubr
          -623 -1638 -99 callsubr
        </CharString>
        <CharString name="Egrave">
          -90 callgsubr
          194 -21 8 callgsubr
          -320 538 26 146 callsubr
          697 1593 -75 callgsubr
          -67 callgsubr
          -637 -1593 -99 callsubr
        </CharString>
        <CharString name="Emacron">
          -90 callgsubr
          176 220 8 callgsubr
          -273 696 -179 146 callsubr
          352 1698 45 callsubr
          -67 callgsubr
          -292 -1918 -99 callsubr
        </CharString>
        <CharString name="Eng">
          221 -1 callgsubr
          175 -164 -21 1341 191 -172 172 -160 160 -136 136 hstemhm
          228 220 815 219 -67 callgsubr
          hintmask 1000010110000000
          46 hmoveto
          601 150 hlineto
          hintmask 0100010110000000
          -199 25 rlineto
          954 vlineto
          91 -197 rlineto
          hintmask 0011000110000000
          581 -942 -13 -30 -14 -29 -14 -22 rlinecurve
          -59 -97 -85 -76 -123 -40 74 -120 rcurveline
          121 18 141 62 115 127 rrcurveto
          77 93 142 122 432 vvcurveto
          901 vlineto
          hintmask 0010010110000000
          172 31 rlineto
          160 -575 -160 vlineto
          hintmask 0011000110000000
          184 -31 rlineto
          -887 vlineto
          -128 267 rlineto
          hintmask 0010010110000000
          -508 811 rlineto
          -581 hlineto
          hintmask 0010001110000000
          -136 vlineto
          hintmask 0100100110000000
          182 -36 rlineto
          -1175 vlineto
          hintmask 1000010110000000
          -182 -25 rlineto
          endchar
        </CharString>
        <CharString name="Eogonek">
          -72 -515 208 -187 -21 515 -89 callsubr
          8 callgsubr
          114 471 -341 154 -67 callgsubr
          hintmask 0110010001110000
          60 hmoveto
          980 hlineto
          -201 -67 -100 -115 -123 vvcurveto
          -124 100 -86 182 84 117 24 43 57 vhcurveto
          hintmask 1010010001110000
          148 callsubr
          -17 -4 -47 hhcurveto
          -82 -41 43 59 65 100 105 137 35 hvcurveto
          14 hlineto
          44 399 -201 55 rlineto
          hintmask 0101010001110000
          -132 -267 -384 -31 rlineto
          528 vlineto
          hintmask 0110010001101000
          207 -5 37 -179 rlineto
          154 534 -154 hlineto
          -39 -166 -205 -5 rlineto
          510 vlineto
          351 -25 rlineto
          hintmask 0110011000110000
          77 -210 rlineto
          185 hlineto
          hintmask 0110010001110000
          -28 384 rlineto
          -1156 hlineto
          hintmask 0110010010110000
          -74 callgsubr
          hintmask 0100110100110000
          155 33 callsubr
          hintmask 0110010001110000
          -24 callgsubr
          endchar
        </CharString>
        <CharString name="Eth">
          139 callsubr
          530 158 466 70 callgsubr
          73 706 rmoveto
          136 hlineto
          hintmask 0011001011000000
          -530 0 callgsubr
          -466 -136 vlineto
          hintmask 1001001011000000
          545 495 rmoveto
          3 13 34 14 62 hhcurveto
          256 81 -268 -346 -440 -118 -171 -203 -1 hvcurveto
          -49 -47 6 15 -29 hvcurveto
          535 250 158 -250 vlineto
          endchar
        </CharString>
        <CharString name="Euro">
          176 -28 150 405 153 193 153 356 161 hstem
          219 455 vstem
          58 527 rmoveto
          180 hlineto
          -348 69 250 -207 348 hhcurveto
          262 156 81 4 87 hvcurveto
          19 347 -185 29 -106 -243 rlineto
          -52 -41 -56 -16 -78 hhcurveto
          -134 -105 103 302 -36 hvcurveto
          347 153 -359 hlineto
          -2 35 0 37 39 vvcurveto
          28 0 28 1 26 vhcurveto
          384 153 -374 hlineto
          252 29 84 104 157 hhcurveto
          61 83 -13 -44 30 hvcurveto
          66 -289 rlineto
          216 hlineto
          28 416 rlineto
          2 -96 -118 89 -271 hhcurveto
          -356 -253 -184 -333 -90 hvcurveto
          -183 -153 154 hlineto
          -5 -45 -2 -47 -48 vvcurveto
          -18 0 -18 1 -17 vhcurveto
          -162 hlineto
          endchar
        </CharString>
        <CharString name="F">
          -140 35 callgsubr
          459 187 300 400 -192 192 -13 callsubr
          8 callgsubr
          hintmask 00000000
          hintmask 10100011
          59 hmoveto
          875 -45 callgsubr
          hintmask 01100011
          50 callsubr
          hintmask 10110001
          92 -219 rlineto
          210 hlineto
          hintmask 10100011
          -24 400 rlineto
          -1178 hlineto
          hintmask 10100101
          -74 callgsubr
          hintmask 01101001
          157 -52 callgsubr
          hintmask 10100011
          -150 -24 rlineto
          endchar
        </CharString>
        <CharString name="G">
          113 -23 3 callsubr
          hstem
          48 483 466 406 vstem
          780 -23 -67 callsubr
        </CharString>
        <CharString name="Gbreve">
          116 -23 3 callsubr
          72 232 hstemhm
          46 483 -109 187 388 406 -367 194 hintmask 00010101
          825 1615 -91 callsubr
          hintmask 11101010
          -47 -1638 -67 callsubr
        </CharString>
        <CharString name="Gcaron">
          113 -23 3 callsubr
          94 -21 hstemhm
          48 483 -72 837 -299 406 hintmask 11101010
          780 -23 -103 callsubr
          hintmask 00010100
          -16 1639 -32 callgsubr
        </CharString>
        <CharString name="Gcircumflex">
          116 -23 3 callsubr
          183 -21 hstemhm
          46 483 -136 857 -255 406 hintmask 11101010
          778 -23 -103 callsubr
          hintmask 00000000
          -259 1619 -82 callsubr
          hintmask 00010100
          30 callgsubr
        </CharString>
        <CharString name="Gcommaaccent">
          116 -539 -21 65 -21 493 3 callsubr
          hstemhm
          46 483 95 358 13 406 hintmask 11000010
          982 -252 -99 callgsubr
          hintmask 00111101
          -204 229 -67 callsubr
        </CharString>
        <CharString name="Gdotaccent">
          116 -23 3 callsubr
          95 363 hstemhm
          46 483 89 417 -40 406 hintmask 00010100
          809 1638 -93 callgsubr
          hintmask 11101010
          -31 -1661 -67 callsubr
        </CharString>
        <CharString name="Gtilde">
          113 -23 3 callsubr
          85 76 callsubr
          48 483 -152 979 -361 406 hintmask 1110001010000000
          780 -23 -103 callsubr
          -67 callgsubr
          266 1651 -39 callsubr
          hintmask 0001000100000000
          -55 callsubr
          hintmask 0000110100000000
          60 callsubr
          endchar
        </CharString>
        <CharString name="H">
          306 83 callgsubr
          414 483 414 vstem
          -61 callsubr
          endchar
        </CharString>
        <CharString name="Hbar">
          306 9 callsubr
          420 195 222 146 225 162 hstem
          209 415 480 416 vstem
          56 989 rmoveto
          153 -814 hlineto
          -152 63 callgsubr
          730 -31 callgsubr
          -163 24 rlineto
          396 480 -396 vlineto
          -149 -17 callsubr
          718 -31 callgsubr
          -153 23 rlineto
          814 184 146 -184 196 vlineto
          155 -7 callsubr
          -721 -74 callgsubr
          150 -30 rlineto
          -195 -480 195 vlineto
          163 130 callgsubr
          154 -30 rlineto
          -195 -153 vlineto
          568 -368 rmoveto
          222 480 -222 vlineto
          endchar
        </CharString>
        <CharString name="Hcircumflex">
          306 112 callsubr
          204 -21 169 callgsubr
          -187 857 -187 414 hintmask 11101010
          -61 callsubr
          hintmask 00000000
          494 84 callgsubr
          hintmask 00010100
          30 callgsubr
        </CharString>
        <CharString name="I">
          -73 callgsubr
        </CharString>
        <CharString name="I.uc">
          -75 callsubr
          116 363 hstemhm
          224 417 -414 416 -87 callsubr
          hintmask 00001100
          341 -29 callsubr
        </CharString>
        <CharString name="IJ">
          279 -6 callsubr
          267 92 callsubr
          hintmask 10011000
          74 hmoveto
          731 150 hlineto
          hintmask 01101000
          -162 25 rlineto
          1155 vlineto
          hintmask 10011000
          162 -70 callsubr
          -734 -74 callgsubr
          hintmask 01101000
          156 -52 callgsubr
          hintmask 10011000
          -153 -24 rlineto
          hintmask 00000000
          836 -563 rmoveto
          hintmask 00010100
          -42 callgsubr
          hintmask 00010010
          23 callgsubr
          hintmask 00010100
          -8 callgsubr
          hintmask 00010010
          61 callgsubr
          endchar
        </CharString>
        <CharString name="IJ_acutecomb">
          277 -75 callsubr
          127 callgsubr
          227 416 267 760 -565 538 -536 412 -67 callgsubr
          hintmask 1001010000000000
          74 hmoveto
          731 150 hlineto
          hintmask 0110010000000000
          -162 25 rlineto
          1155 vlineto
          hintmask 1001010000000000
          162 -70 callsubr
          -734 -74 callgsubr
          hintmask 0110010000000000
          156 -52 callgsubr
          hintmask 1001010000000000
          -153 -24 rlineto
          hintmask 0000100100000000
          1175 1441 -96 callsubr
          -67 callgsubr
          -195 -2106 rmoveto
          hintmask 0001001000000000
          -42 callgsubr
          hintmask 0001000010000000
          23 callgsubr
          hintmask 0001001000000000
          -8 callgsubr
          hintmask 0001000010000000
          61 callgsubr
          hintmask 0001001000000000
          -406 1870 -96 callsubr
          endchar
        </CharString>
        <CharString name="Iacute">
          -75 callsubr
          127 callgsubr
          227 416 -370 538 hintmask 00000000
          hintmask 10010100
          74 hmoveto
          731 150 hlineto
          hintmask 01100100
          -162 25 rlineto
          1155 vlineto
          hintmask 10010100
          162 -70 callsubr
          -734 -74 callgsubr
          hintmask 01100100
          156 -52 callgsubr
          hintmask 10010100
          -153 -24 rlineto
          hintmask 00001010
          343 1441 -96 callsubr
          endchar
        </CharString>
        <CharString name="Ibreve">
          -75 callsubr
          93 232 hstemhm
          30 187 10 416 1 194 -87 callsubr
          hintmask 00001101
          361 1463 8 callsubr
        </CharString>
        <CharString name="Icircumflex">
          -75 callsubr
          204 -21 hstemhm
          -1 857 -629 416 -87 callsubr
          hintmask 00000000
          51 84 callgsubr
          hintmask 00001100
          30 callgsubr
        </CharString>
        <CharString name="Idieresis">
          -75 callsubr
          94 callsubr
          -33 379 -119 416 -127 10 callgsubr
          54 1474 rmoveto
          1 hlineto
          152 65 171 callsubr
          -128 -88 callgsubr
          hintmask 0000101010000000
          -86 callsubr
          hintmask 0000011010000000
          91 -54 79 -129 -88 callgsubr
          hintmask 0000101010000000
          99 callsubr
        </CharString>
        <CharString name="Idotaccent">
          -75 callsubr
          116 363 hstemhm
          224 417 -414 416 -87 callsubr
          hintmask 00001100
          341 -29 callsubr
        </CharString>
        <CharString name="Igrave">
          -75 callsubr
          127 callgsubr
          52 538 -363 416 -87 callsubr
          hintmask 00001100
          370 1441 18 callgsubr
        </CharString>
        <CharString name="Imacron">
          -75 callsubr
          176 220 hstemhm
          82 696 -551 416 -87 callsubr
          hintmask 00001100
          8 1546 125 callsubr
        </CharString>
        <CharString name="Iogonek">
          141 callgsubr
          176 -155 -21 1330 -68 callgsubr
          hstemhm
          71 620 -562 308 -210 416 -67 callgsubr
          hintmask 0100101100000000
          74 hmoveto
          348 hlineto
          hintmask 0100101010000000
          -174 -67 -119 -115 -123 vvcurveto
          -124 115 -86 181 vhcurveto
          hintmask 0100101100000000
          84 124 24 43 58 hvcurveto
          hintmask 1000101100000000
          148 callsubr
          -17 -4 -47 hhcurveto
          hintmask 1000101010000000
          -100 -45 43 59 63 78 96 129 46 hvcurveto
          161 150 hlineto
          hintmask 0100110001000000
          -162 25 rlineto
          1155 vlineto
          hintmask 0100101100000000
          162 -70 callsubr
          -734 -74 callgsubr
          hintmask 0101010001000000
          156 -52 callgsubr
          hintmask 0110001100000000
          -153 -24 rlineto
          endchar
        </CharString>
        <CharString name="Itilde">
          -75 callsubr
          106 76 callsubr
          -59 979 -693 416 -67 callgsubr
          hintmask 1001000010000000
          74 hmoveto
          731 150 hlineto
          hintmask 0110000010000000
          -162 25 rlineto
          1155 vlineto
          hintmask 1001000010000000
          162 -70 callsubr
          -734 -74 callgsubr
          hintmask 0110000010000000
          156 -52 callgsubr
          hintmask 1001000010000000
          -153 -24 rlineto
          -67 callgsubr
          534 1476 -39 callsubr
          hintmask 0000100100000000
          -55 callsubr
          hintmask 0000011100000000
          60 callsubr
          endchar
        </CharString>
        <CharString name="J">
          -593 -21 callgsubr
        </CharString>
        <CharString name="Jcircumflex">
          -592 1360 162 204 -21 hstemhm
          10 857 -827 92 callsubr
          hintmask 10010000
          40 -411 rmoveto
          hintmask 10001000
          -42 callgsubr
          hintmask 10010000
          23 callgsubr
          hintmask 10001000
          -8 callgsubr
          hintmask 10010000
          61 callgsubr
          hintmask 00000000
          185 1873 -82 callsubr
          hintmask 01100000
          30 callgsubr
        </CharString>
        <CharString name="K">
          163 44 callsubr
          hstem
          209 414 284 621 vstem
          1599 hmoveto
          -29 callgsubr
        </CharString>
        <CharString name="Kcommaaccent">
          163 106 callgsubr
          1208 162 169 callgsubr
          1 358 -75 621 hintmask 11000100
          982 -252 -99 callgsubr
          hintmask 00111010
          617 252 rmoveto
          -29 callgsubr
        </CharString>
        <CharString name="L">
          -105 102 callsubr
          hintmask 00000000
          hintmask 10011000
          60 hmoveto
          23 callsubr
          hintmask 01101000
          13 callgsubr
          hintmask 10011000
          7 callsubr
          hintmask 01101000
          148 -8 callsubr
          hintmask 10011000
          -24 callgsubr
          endchar
        </CharString>
        <CharString name="Lacute">
          -105 16 callsubr
          194 -21 8 callgsubr
          -360 538 hintmask 00001010
          409 -71 callgsubr
          hintmask 00000000
          -205 -1695 rmoveto
          23 callsubr
          hintmask 10010100
          13 callgsubr
          hintmask 01100100
          7 callsubr
          hintmask 10010100
          148 -8 callsubr
          hintmask 01100100
          -24 callgsubr
          endchar
        </CharString>
        <CharString name="Lcaron">
          -105 16 callsubr
          101 -21 8 callgsubr
          327 270 hintmask 00000000
          hintmask 10010100
          60 hmoveto
          23 callsubr
          hintmask 01100100
          13 callgsubr
          hintmask 10010100
          7 callsubr
          hintmask 01100100
          148 -8 callsubr
          hintmask 10010100
          -24 callgsubr
          hintmask 00001010
          1037 801 -59 callsubr
        </CharString>
        <CharString name="Lcommaaccent">
          -112 106 callgsubr
          -152 175 1155 157 callgsubr
          -98 358 hintmask 11000001
          885 -252 -99 callgsubr
          hintmask 00000000
          -825 252 rmoveto
          23 callsubr
          hintmask 00100110
          13 callgsubr
          hintmask 00011010
          7 callsubr
          hintmask 00100110
          148 -8 callsubr
          hintmask 00011010
          -24 callgsubr
          endchar
        </CharString>
        <CharString name="Ldot">
          -21 0 90 callgsubr
          578 -21 598 157 callgsubr
          282 437 hintmask 00000000
          hintmask 10001100
          60 hmoveto
          23 callsubr
          hintmask 01010100
          13 callgsubr
          hintmask 10001100
          7 callsubr
          hintmask 01010100
          148 -8 callsubr
          hintmask 10001100
          -24 callgsubr
          hintmask 00100010
          1044 580 rmoveto
          -64 callsubr
          endchar
        </CharString>
        <CharString name="Lslash">
          -112 102 callsubr
          hintmask 00000000
          hintmask 10011000
          44 513 rmoveto
          165 62 rlineto
          hintmask 01011000
          -400 vlineto
          hintmask 10011000
          108 callsubr
          1191 vlineto
          53 608 -225 28 rlineto
          hintmask 01101000
          -140 -435 -314 -22 rlineto
          553 vlineto
          320 125 rlineto
          171 vlineto
          -320 -128 rlineto
          430 vlineto
          hintmask 10011000
          7 callsubr
          hintmask 10101000
          148 -30 rlineto
          -590 vlineto
          -165 -65 rlineto
          endchar
        </CharString>
        <CharString name="M">
          740 -57 callgsubr
        </CharString>
        <CharString name="N">
          232 27 callgsubr
          123 callsubr
          825 220 146 callgsubr
          55 hmoveto
          -59 callgsubr
          hintmask 11011000
          1331 vlineto
          hintmask 10111000
          6 callsubr
          hintmask 11011000
          -3 callsubr
          hintmask 10111000
          20 callgsubr
          hintmask 11011000
          -4 callsubr
          endchar
        </CharString>
        <CharString name="NULL">
          -1423 endchar
        </CharString>
        <CharString name="Nacute">
          238 27 callgsubr
          194 -21 123 callsubr
          250 538 37 220 hintmask 00010100
          829 -71 callgsubr
          hintmask 00000000
          -630 -1695 -21 callsubr
        </CharString>
        <CharString name="Ncaron">
          238 27 callgsubr
          115 -21 123 callsubr
          8 837 -20 220 hintmask 00010100
          748 1616 -82 callgsubr
          hintmask 00000000
          -388 -1906 -21 callsubr
        </CharString>
        <CharString name="Ncommaaccent">
          238 106 callgsubr
          1179 191 -60 callgsubr
          123 callsubr
          254 358 213 220 hintmask 11000010
          1047 -252 -99 callgsubr
          hintmask 00000000
          -992 252 rmoveto
          -59 callgsubr
          hintmask 00101101
          1331 vlineto
          hintmask 00110101
          6 callsubr
          hintmask 00101101
          -3 callsubr
          hintmask 00110101
          20 callgsubr
          hintmask 00101101
          -4 callsubr
          endchar
        </CharString>
        <CharString name="Ntilde">
          238 27 callgsubr
          106 76 callsubr
          215 220 -74 979 -80 220 -67 callgsubr
          hintmask 0001000100000000
          1028 1628 -39 callsubr
          hintmask 0000110100000000
          -55 callsubr
          hintmask 0001000100000000
          60 callsubr
          -67 callgsubr
          -973 -1628 rmoveto
          -59 callgsubr
          hintmask 1010001010000000
          1331 vlineto
          hintmask 1100001010000000
          6 callsubr
          hintmask 1010001010000000
          -3 callsubr
          hintmask 1100001010000000
          20 callgsubr
          hintmask 1010001010000000
          -4 callsubr
          endchar
        </CharString>
        <CharString name="O">
          83 27 callsubr
          hstem
          164 callgsubr
          vstem
          745 -11 callsubr
          endchar
        </CharString>
        <CharString name="OE">
          716 -16 145 -129 129 -129 156 524 186 272 384 -148 148 -127 127 -127 149 hstemhm
          48 454 460 426 244 167 -67 callgsubr
          hintmask 0101000111100000
          2066 hmoveto
          65 392 -190 55 rlineto
          hintmask 0011010011100000
          -151 -260 -402 -31 rlineto
          528 vlineto
          208 -7 36 -177 rlineto
          167 534 -167 hlineto
          -37 -164 -207 -7 rlineto
          511 vlineto
          359 -26 rlineto
          hintmask 1001100011100000
          74 -210 rlineto
          186 hlineto
          hintmask 1001001011100000
          -28 384 rlineto
          -1017 -11 hlineto
          hintmask 1001000111100000
          23 -60 -66 10 -70 hhcurveto
          -462 -1 -256 -306 -476 vvcurveto
          -458 206 -320 494 1 vhcurveto
          77 72 16 37 65 hvcurveto
          hintmask 0101000111100000
          -37 vlineto
          hintmask 1001000111100000
          -207 129 rmoveto
          -154 1 -99 175 458 vvcurveto
          425 84 207 163 103 71 -46 -173 39 vhcurveto
          -772 vlineto
          -169 -37 -67 -106 -103 hhcurveto
          endchar
        </CharString>
        <CharString name="Oacute">
          24 callgsubr
          173 -21 170 callgsubr
          91 538 -130 456 hintmask 00101000
          743 -71 callgsubr
          hintmask 11010100
          151 -1718 -104 callsubr
          endchar
        </CharString>
        <CharString name="Obreve">
          24 callgsubr
          72 232 170 callgsubr
          -149 187 427 194 -160 456 hintmask 00101100
          764 1615 -91 callsubr
          hintmask 11010010
          -14 -1638 -104 callsubr
          endchar
        </CharString>
        <CharString name="Ocircumflex">
          24 callgsubr
          183 -21 170 callgsubr
          -179 857 -179 -16 callsubr
          hintmask 00000000
          -304 204 -82 callsubr
          hintmask 00101000
          30 callgsubr
        </CharString>
        <CharString name="Odieresis">
          24 callgsubr
          83 5 callgsubr
          53 455 -212 41 callsubr
          -218 456 hintmask 00000000
          hintmask 00010110
          457 19 callgsubr
          hintmask 00100110
          91 -54 79 -128 -88 callgsubr
          hintmask 00010110
          -86 callsubr
          hintmask 00100110
          91 -54 79 -129 -88 callgsubr
          hintmask 00010110
          35 callsubr
          hintmask 11001001
          -257 -1649 -104 callsubr
          endchar
        </CharString>
        <CharString name="Ograve">
          24 callgsubr
          173 -21 170 callgsubr
          -113 538 74 456 hintmask 00101000
          787 1593 -75 callgsubr
          hintmask 11010100
          -37 -1616 -104 callsubr
          endchar
        </CharString>
        <CharString name="Ohungarumlaut">
          24 callgsubr
          188 -21 170 callgsubr
          -185 1080 -396 -16 callsubr
          hintmask 00101000
          -285 194 -47 callgsubr
        </CharString>
        <CharString name="Omacron">
          24 callgsubr
          155 220 170 callgsubr
          -96 696 -101 456 hintmask 00101000
          412 1698 45 callsubr
          hintmask 11010100
          338 -1941 -104 callsubr
          endchar
        </CharString>
        <CharString name="Omega">
          -56 callsubr
        </CharString>
        <CharString name="Omegagreek">
          -56 callsubr
        </CharString>
        <CharString name="Oslash">
          136 callsubr
          230 -21 hstemhm
          164 callgsubr
          hintmask 00000000
          hintmask 10101110
          441 -249 rmoveto
          hintmask 01101110
          103 245 rlineto
          hintmask 10011110
          49 callsubr
          hintmask 10101110
          -28 callgsubr
          endchar
        </CharString>
        <CharString name="Oslashacute">
          136 callsubr
          213 -21 38 -21 hstemhm
          48 455 70 538 -109 456 -67 callgsubr
          hintmask 1010011010000000
          441 -249 rmoveto
          hintmask 0110011010000000
          103 245 rlineto
          hintmask 1001011010000000
          49 callsubr
          hintmask 1010011010000000
          -28 callgsubr
          hintmask 0000100100000000
          -37 201 -96 callsubr
          endchar
        </CharString>
        <CharString name="Otilde">
          24 callgsubr
          85 76 callsubr
          53 455 -238 979 -242 456 hintmask 00000000
          hintmask 00100010
          937 1628 -39 callsubr
          hintmask 00011010
          -55 callsubr
          hintmask 00100010
          60 callsubr
          hintmask 11000101
          -187 -1651 -104 callsubr
          endchar
        </CharString>
        <CharString name="P">
          -50 callgsubr
        </CharString>
        <CharString name="Q">
          83 -373 230 120 29 callgsubr
          hstem
          164 callgsubr
          vstem
          745 -23 rmoveto
          52 49 6 9 47 hvcurveto
          -95 222 205 -270 300 hhcurveto
          11 hlineto
          194 64 110 34 23 hvcurveto
          -33 100 rlineto
          -8 -21 -35 -6 -73 hhcurveto
          -2 hlineto
          -186 -243 169 48 -205 hvcurveto
          219 133 125 258 325 -100 callsubr
          endchar
        </CharString>
        <CharString name="R">
          37 callgsubr
          hstemhm
          209 415 314 437 hintmask 00000000
          hintmask 11001011
          60 hmoveto
          -62 callsubr
          hintmask 11000111
          86 callsubr
          hintmask 11010011
          -74 callgsubr
          hintmask 11100011
          32 callgsubr
          hintmask 11001011
          11 callsubr
          hintmask 11100011
          152 callsubr
          endchar
        </CharString>
        <CharString name="Racute">
          37 callgsubr
          214 -21 hstemhm
          209 415 -49 538 -175 437 -67 callgsubr
          hintmask 1100100101000000
          60 hmoveto
          -62 callsubr
          hintmask 1100010101000000
          86 callsubr
          hintmask 1101000101000000
          -74 callgsubr
          hintmask 1110000101000000
          32 callgsubr
          hintmask 1100100101000000
          11 callsubr
          hintmask 1110000101000000
          152 callsubr
          hintmask 0000001010000000
          95 804 -96 callsubr
          endchar
        </CharString>
        <CharString name="Rcaron">
          37 callgsubr
          135 -21 hstemhm
          209 415 -298 837 -225 437 hintmask 0000001010000000
          631 1616 -82 callgsubr
          -67 callgsubr
          -266 -1906 rmoveto
          -62 callsubr
          hintmask 1100100101000000
          86 callsubr
          hintmask 1100010101000000
          -74 callgsubr
          hintmask 1101000101000000
          32 callgsubr
          hintmask 1110000101000000
          11 callsubr
          hintmask 1100100101000000
          152 callsubr
          endchar
        </CharString>
        <CharString name="Rcommaaccent">
          103 -539 -21 65 -21 516 48 callgsubr
          hstemhm
          209 415 1 358 -45 437 hintmask 1100000001000000
          983 -252 -99 callgsubr
          -67 callgsubr
          -923 252 rmoveto
          -62 callsubr
          hintmask 0011001010100000
          86 callsubr
          hintmask 0011000110100000
          -74 callgsubr
          hintmask 0011010010100000
          32 callgsubr
          hintmask 0011100010100000
          11 callsubr
          hintmask 0011001010100000
          152 callsubr
          endchar
        </CharString>
        <CharString name="S">
          42 callsubr
          hstem
          106 392 319 412 vstem
          627 -23 -41 callgsubr
        </CharString>
        <CharString name="Sacute">
          42 callsubr
          173 -21 hstemhm
          106 392 11 538 -230 412 hintmask 11010100
          627 -23 -101 callgsubr
          hintmask 00101000
          26 1616 -96 callsubr
          endchar
        </CharString>
        <CharString name="Scaron">
          42 callsubr
          94 -21 hstemhm
          106 392 -239 837 -279 412 hintmask 11010100
          627 -23 -101 callgsubr
          hintmask 00101000
          -63 1639 -32 callgsubr
        </CharString>
        <CharString name="Scircumflex">
          42 callsubr
          183 -21 hstemhm
          106 392 -260 857 -278 412 hintmask 11010100
          627 -23 -101 callgsubr
          hintmask 00000000
          -263 1619 -82 callsubr
          hintmask 00101000
          30 callgsubr
        </CharString>
        <CharString name="T">
          94 35 callgsubr
          1168 177 hstemhm
          554 416 hintmask 00000000
          hintmask 10110000
          297 hmoveto
          956 -45 callgsubr
          hintmask 01110000
          -283 24 rlineto
          1174 vlineto
          -66 callsubr
          -1174 vlineto
          hintmask 10110000
          -257 -24 rlineto
          endchar
        </CharString>
        <CharString name="Tbar">
          106 35 callgsubr
          373 171 624 177 hstemhm
          560 416 146 callgsubr
          352 549 rmoveto
          208 hlineto
          hintmask 01111000
          -373 vlineto
          hintmask 10111000
          -257 -17 callsubr
          956 -31 callgsubr
          hintmask 01111000
          -283 24 rlineto
          373 201 171 -201 630 vlineto
          -66 callsubr
          -630 -208 vlineto
          endchar
        </CharString>
        <CharString name="Tcaron">
          94 35 callgsubr
          1168 177 116 -21 hstemhm
          360 837 -643 416 hintmask 00011000
          665 1616 -82 callgsubr
          hintmask 00000000
          -63 -1906 rmoveto
          956 -45 callgsubr
          hintmask 10100100
          -283 24 rlineto
          1174 vlineto
          -66 callsubr
          -1174 vlineto
          hintmask 01100100
          -257 -24 rlineto
          endchar
        </CharString>
        <CharString name="Thorn">
          -26 0 150 165 151 577 160 127 192 -160 160 hstemhm
          208 417 302 434 hintmask 00000000
          hintmask 11110110
          54 hmoveto
          776 150 hlineto
          -205 25 rlineto
          155 vlineto
          -5 41 102 -10 88 hhcurveto
          316 189 152 325 280 -148 131 -302 -123 -62 -13 -8 -101 hvcurveto
          148 vlineto
          hintmask 11101110
          166 31 rlineto
          hintmask 11110110
          -2 161 rlineto
          -737 hlineto
          hintmask 11101110
          -160 vlineto
          hintmask 11110110
          156 -32 rlineto
          -1156 vlineto
          -154 -24 rlineto
          712 316 rmoveto
          -38 -53 -1 10 -50 hvcurveto
          554 vlineto
          7 24 49 7 40 hhcurveto
          142 1 47 -135 -131 vvcurveto
          -185 -67 -127 -94 vhcurveto
          endchar
        </CharString>
        <CharString name="U">
          -2 callsubr
          hstem
          137 callsubr
          567 254 vstem
          -77 callsubr
          endchar
        </CharString>
        <CharString name="Uacute">
          -2 callsubr
          194 -21 132 callgsubr
          73 538 -44 254 hintmask 00101000
          790 -71 callgsubr
          hintmask 11010100
          152 -1711 -104 callgsubr
          endchar
        </CharString>
        <CharString name="Ubreve">
          -2 callsubr
          93 232 132 callgsubr
          -168 187 427 194 -73 254 hintmask 00101100
          810 1615 -91 callsubr
          hintmask 11010010
          -12 -1631 -104 callgsubr
          endchar
        </CharString>
        <CharString name="Ucircumflex">
          -2 callsubr
          204 -21 132 callgsubr
          -188 857 -102 254 hintmask 11010100
          -77 callsubr
          hintmask 00000000
          -287 1612 -82 callsubr
          hintmask 00101000
          30 callgsubr
        </CharString>
        <CharString name="Udieresis">
          -2 callsubr
          94 callsubr
          143 430 -230 41 callsubr
          -132 254 hintmask 00000000
          hintmask 00010110
          504 19 callgsubr
          hintmask 00100110
          91 -54 79 -128 -88 callgsubr
          hintmask 00010110
          -86 callsubr
          hintmask 00100110
          91 -54 79 -129 -88 callgsubr
          hintmask 00010110
          35 callsubr
          hintmask 11001001
          -256 -1642 -104 callgsubr
          endchar
        </CharString>
        <CharString name="Ugrave">
          -2 callsubr
          194 -21 132 callgsubr
          -132 538 161 254 hintmask 00101000
          833 1593 -75 callgsubr
          hintmask 11010100
          -35 -1609 -104 callgsubr
          endchar
        </CharString>
        <CharString name="Uhungarumlaut">
          -2 callsubr
          209 -21 132 callgsubr
          -204 1080 -309 254 hintmask 11010100
          -77 callsubr
          hintmask 00101000
          -278 1602 -47 callgsubr
        </CharString>
        <CharString name="Umacron">
          -2 callsubr
          176 220 132 callgsubr
          -115 696 -14 254 hintmask 00101000
          458 1698 45 callsubr
          hintmask 11010100
          340 -1934 -104 callgsubr
          endchar
        </CharString>
        <CharString name="Uogonek">
          107 54 callsubr
          499 157 1219 162 132 callgsubr
          47 307 34 199 -20 254 hintmask 00000000
          hintmask 01111110
          798 -16 rmoveto
          25 25 1 2 24 hvcurveto
          -113 -54 -139 -114 -124 vvcurveto
          -146 129 -64 148 86 118 25 43 59 vhcurveto
          hintmask 10111110
          163 vlineto
          -19 -48 -17 -4 -49 hhcurveto
          -78 -41 60 56 75 64 74 97 78 hvcurveto
          hintmask 01111101
          187 80 119 176 306 vvcurveto
          732 vlineto
          127 167 callsubr
          hintmask 01111110
          -560 -162 hlineto
          hintmask 01111101
          179 -30 rlineto
          -755 vlineto
          -243 -69 -191 -209 -215 -74 179 255 vhcurveto
          751 vlineto
          170 34 rlineto
          162 -719 -74 callgsubr
          119 -30 rlineto
          -721 vlineto
          hintmask 01111110
          -443 229 -182 426 vhcurveto
          endchar
        </CharString>
        <CharString name="Uring">
          -2 callsubr
          -54 130 284 132 132 callgsubr
          -128 224 301 224 -54 254 hintmask 11001001
          -77 callsubr
          hintmask 00110110
          21 1614 -51 callgsubr
        </CharString>
        <CharString name="Utilde">
          -2 callsubr
          106 76 callsubr
          143 430 -257 979 -155 254 hintmask 00000000
          hintmask 00100010
          983 1628 -39 callsubr
          hintmask 00011010
          -55 callsubr
          hintmask 00100010
          60 callsubr
          hintmask 11000101
          -185 -1644 -104 callgsubr
          endchar
        </CharString>
        <CharString name="V">
          31 6 -21 1375 162 hstem
          -43 732 261 553 vstem
          580 -15 rmoveto
          337 hlineto
          453 1345 133 -70 callsubr
          -553 -74 callgsubr
          159 -31 -256 -854 -28 -145 -37 145 -260 856 161 -7 callsubr
          -732 -74 callgsubr
          119 -30 rlineto
          endchar
        </CharString>
        <CharString name="W">
          710 11 -21 1370 162 hstem
          -35 703 127 737 133 502 vstem
          481 -10 -85 callgsubr
        </CharString>
        <CharString name="Wacute">
          107 callgsubr
          127 callgsubr
          -40 703 127 737 -586 538 181 502 hintmask 00100100
          1085 -71 callgsubr
          hintmask 11011010
          -465 -1705 -85 callgsubr
        </CharString>
        <CharString name="Wcircumflex">
          107 callgsubr
          204 -21 hstemhm
          -40 703 7 857 -737 737 133 502 hintmask 11010110
          476 -10 -83 callgsubr
          hintmask 00000000
          726 267 -82 callsubr
          hintmask 00101000
          30 callgsubr
        </CharString>
        <CharString name="Wdieresis">
          107 callgsubr
          94 callsubr
          -40 703 -26 379 -226 737 -341 380 94 502 -67 callgsubr
          hintmask 0001010100000000
          798 19 callgsubr
          hintmask 0010010100000000
          91 -54 79 -128 -88 callgsubr
          hintmask 0001010100000000
          -86 callsubr
          hintmask 0010010100000000
          91 -54 79 -129 -88 callgsubr
          hintmask 0001010100000000
          35 callsubr
          hintmask 1100101010000000
          -872 -1636 -85 callgsubr
        </CharString>
        <CharString name="Wgrave">
          107 callgsubr
          127 callgsubr
          -40 703 67 538 -478 737 133 502 hintmask 00101000
          1122 1593 -75 callgsubr
          hintmask 11010110
          -646 -1603 -85 callgsubr
        </CharString>
        <CharString name="X">
          -38 callgsubr
        </CharString>
        <CharString name="Y">
          -69 44 callsubr
          hstemhm
          -48 704 -188 114 callsubr
          hintmask 11010000
          265 -30 callsubr
          hintmask 11101000
          -84 callgsubr
          rlineto
          hintmask 11010000
          13 callsubr
          endchar
        </CharString>
        <CharString name="Yacute">
          124 callsubr
          -188 444 -368 538 -223 551 hintmask 00000000
          hintmask 11001000
          -47 callsubr
          hintmask 11001000
          13 callsubr
          hintmask 00100100
          423 1441 -96 callsubr
          endchar
        </CharString>
        <CharString name="Ycircumflex">
          129 callsubr
          204 -21 hstemhm
          -59 704 -383 857 -662 114 callsubr
          hintmask 11000100
          -47 callsubr
          hintmask 11000100
          13 callsubr
          hintmask 00000000
          134 84 callgsubr
          hintmask 00101000
          30 callgsubr
        </CharString>
        <CharString name="Ydieresis">
          129 callsubr
          94 callsubr
          -59 704 -416 379 -151 444 -123 380 -310 551 -67 callgsubr
          hintmask 1100001000000000
          254 -30 callsubr
          hintmask 1100100010000000
          -84 callgsubr
          rlineto
          hintmask 1100001000000000
          13 callsubr
          -67 callgsubr
          136 1474 -58 callgsubr
          hintmask 0001010100000000
          91 -54 79 -128 -88 callgsubr
          hintmask 0010010100000000
          -86 callsubr
          hintmask 0001010100000000
          91 -54 79 -129 -88 callgsubr
          hintmask 0010010100000000
          99 callsubr
        </CharString>
        <CharString name="Ygrave">
          124 callsubr
          -323 538 -403 114 callsubr
          hintmask 11000100
          -47 callsubr
          hintmask 11000100
          13 callsubr
          hintmask 00101000
          460 1441 18 callgsubr
        </CharString>
        <CharString name="Z">
          105 callgsubr
          hstem
          10 1300 vstem
          87 hmoveto
          14 callsubr
        </CharString>
        <CharString name="Zacute">
          105 callgsubr
          190 -21 hstemhm
          10 1300 -752 538 hintmask 11010000
          87 hmoveto
          -72 callsubr
          hintmask 00101000
          692 1460 -96 callsubr
          endchar
        </CharString>
        <CharString name="Zcaron">
          105 callgsubr
          111 -21 hstemhm
          10 1300 -1001 837 hintmask 00101000
          614 1616 -82 callgsubr
          hintmask 11010000
          -222 -1906 rmoveto
          14 callsubr
        </CharString>
        <CharString name="Zdotaccent">
          105 callgsubr
          112 363 hstemhm
          10 1300 -799 417 hintmask 00101000
          702 1638 -93 callgsubr
          hintmask 11010000
          -615 -1638 rmoveto
          14 callsubr
        </CharString>
        <CharString name="a">
          -248 -63 callgsubr
          132 callsubr
          245 366 hintmask 00000000
          hintmask 00111110
          40 330 rmoveto
          -223 159 -130 190 166 108 83 74 54 vhcurveto
          -38 vlineto
          hintmask 01011110
          -101 callsubr
          hintmask 00111110
          -446 -1 -212 -143 -236 vvcurveto
          hintmask 10011110
          -88 callsubr
          endchar
        </CharString>
        <CharString name="aacute">
          -54 callgsubr
          119 569 132 callsubr
          -86 599 -268 366 -100 callgsubr
          hintmask 0000010100000000
          -65 1097 -32 callsubr
        </CharString>
        <CharString name="abreve">
          -54 callgsubr
          148 253 132 callsubr
          -260 178 327 366 -265 174 -100 callgsubr
          hintmask 0000010101000000
          4 1126 -92 callgsubr
        </CharString>
        <CharString name="acircumflex">
          -54 callgsubr
          122 512 132 callsubr
          -291 852 -316 366 -100 callgsubr
          hintmask 0000010100000000
          -298 1100 67 callsubr
        </CharString>
        <CharString name="acute">
          -742 1286 569 hstem
          122 599 vstem
          272 1286 -32 callsubr
        </CharString>
        <CharString name="acute.cap">
          -400 1716 -21 hstem
          350 538 vstem
          494 -71 callgsubr
          endchar
        </CharString>
        <CharString name="adieresis">
          -54 callgsubr
          157 388 132 callsubr
          -321 4 callgsubr
          -342 366 -67 callgsubr
          hintmask 0011101001000000
          40 330 rmoveto
          -223 159 -130 190 166 108 83 74 54 vhcurveto
          -38 vlineto
          hintmask 0101101001000000
          -101 callsubr
          hintmask 0011101001000000
          -446 -1 -212 -143 -236 vvcurveto
          hintmask 1001101001000000
          -88 callsubr
          hintmask 0000010110000000
          -287 1135 -107 callgsubr
          endchar
        </CharString>
        <CharString name="ae">
          355 34 callsubr
          hstemhm
          41 124 callgsubr
          1259 -69 callgsubr
        </CharString>
        <CharString name="aeacute">
          365 34 callsubr
          119 569 hstemhm
          41 427 194 599 -556 380 261 381 hintmask 0000001010000000
          812 1286 -94 callsubr
          -67 callgsubr
          597 -1426 rmoveto
          206 195 112 63 56 hvcurveto
          -62 139 rlineto
          -32 -63 -125 -44 -108 hhcurveto
          -161 -88 96 216 -19 hvcurveto
          620 hlineto
          11 55 6 68 97 vvcurveto
          261 -3 -153 159 -309 hhcurveto
          -132 -114 -31 -60 -90 hvcurveto
          62 -56 -96 29 -163 hhcurveto
          -267 -213 -110 -50 -58 hvcurveto
          hintmask 0110010101100000
          80 -170 rlineto
          32 84 110 40 157 hhcurveto
          169 32 -64 -107 hvcurveto
          -28 vlineto
          -445 -2 -219 -145 -245 vvcurveto
          -224 158 -117 188 165 168 76 121 79 vhcurveto
          hintmask 0101100101100000
          -124 87 148 -73 225 hhcurveto
          hintmask 0110010101100000
          -674 212 rmoveto
          -71 -46 55 128 89 47 101 181 4 hvcurveto
          -106 14 -96 32 -83 vhcurveto
          -51 -34 -62 -41 -61 hhcurveto
          646 822 163 callgsubr
          hintmask 1001010101100000
          -18 -1 -48 -1 -18 vhcurveto
          -259 hlineto
          hintmask 0110010101100000
          288 3 58 47 85 hhcurveto
          endchar
        </CharString>
        <CharString name="afii10017">
          -33 callgsubr
          hstemhm
          -43 575 265 697 hintmask 00000000
          hintmask 11111000
          -42 -106 callsubr
          endchar
        </CharString>
        <CharString name="afii10018">
          33 -16 158 -142 75 callsubr
          732 154 458 178 -162 95 callgsubr
          377 425 -67 callgsubr
          hintmask 0001110100000000
          47 hmoveto
          384 hlineto
          85 319 -16 49 hhcurveto
          hintmask 1000110110000000
          317 223 171 304 294 -174 133 -373 -32 -208 -5 -3 -15 hvcurveto
          477 vlineto
          362 -22 63 -248 rlineto
          228 hlineto
          -21 437 rlineto
          -1206 hlineto
          hintmask 0010101100000000
          -74 callgsubr
          161 -8 callsubr
          hintmask 0100110110000000
          -162 -23 rlineto
          709 580 rmoveto
          170 73 -83 -210 hvcurveto
          hintmask 1000110110000000
          -153 -46 -144 -217 -62 -32 9 9 -20 vhcurveto
          567 vlineto
          hintmask 0100110110000000
          1 9 100 4 25 hhcurveto
          endchar
        </CharString>
        <CharString name="afii10019">
          -73 callsubr
        </CharString>
        <CharString name="afii10020">
          97 callsubr
          hstemhm
          274 413 hintmask 00000000
          hintmask 01010100
          687 1355 rmoveto
          86 callgsubr
          hintmask 01001100
          122 callgsubr
          hintmask 01100100
          218 -32 -63 callsubr
          hintmask 10001100
          -221 -24 rlineto
          hintmask 01001100
          -152 940 vlineto
          hintmask 10001100
          151 vlineto
          hintmask 01001100
          -306 25 rlineto
          endchar
        </CharString>
        <CharString name="afii10021">
          202 0 176 1177 169 hstemhm
          213 40 175 185 331 412 -43 242 hintmask 00000000
          hintmask 11110100
          32 -439 rmoveto
          221 hlineto
          15 106 59 285 43 48 rrcurveto
          848 hlineto
          31 -42 62 -320 2 -70 rrcurveto
          213 hlineto
          10 36 22 413 159 vvcurveto
          hintmask 11111000
          -202 1154 hlineto
          hintmask 11110100
          199 -70 callsubr
          -1342 -74 callgsubr
          215 -30 rlineto
          -61 vlineto
          -634 -152 -333 -82 -126 vhcurveto
          -141 hlineto
          -1 -5 -2 2 -15 -197 1 -325 -4 -90 rlinecurve
          581 1696 rmoveto
          96 vlineto
          hintmask 11111000
          331 -1177 -501 hlineto
          hintmask 11110100
          70 151 101 349 -1 581 rrcurveto
          endchar
        </CharString>
        <CharString name="afii10022">
          -57 callsubr
        </CharString>
        <CharString name="afii10023">
          -90 callgsubr
          94 callsubr
          209 416 -388 41 callsubr
          -297 154 -67 callgsubr
          hintmask 0000000001011000
          398 -14 callgsubr
          -888 -37 callsubr
        </CharString>
        <CharString name="afii10024">
          91 callgsubr
          hstem
          35 586 286 399 286 592 vstem
          2220 hmoveto
          -84 callsubr
        </CharString>
        <CharString name="afii10025">
          -113 -12 121 callsubr
          hstemhm
          780 434 -431 470 hintmask 00000000
          hintmask 11110000
          135 72 callsubr
          hintmask 11101000
          57 callsubr
          hintmask 11110000
          -48 callsubr
          hintmask 11101000
          31 callsubr
          endchar
        </CharString>
        <CharString name="afii10026">
          338 -3 callgsubr
          hstemhm
          209 411 521 410 146 callgsubr
          105 callsubr
          hintmask 11011000
          847 vlineto
          hintmask 10111000
          -78 callgsubr
          hintmask 11011000
          1154 vlineto
          hintmask 10111000
          53 callsubr
          hintmask 11011000
          119 callgsubr
          endchar
        </CharString>
        <CharString name="afii10027">
          338 -3 callgsubr
          101 135 hstemhm
          209 411 -195 153 callsubr
          -186 410 hintmask 00010110
          875 1623 -81 callgsubr
          hintmask 00000000
          -163 -948 rmoveto
          -92 -192 rlineto
          hintmask 10101001
          847 vlineto
          hintmask 11001001
          -78 callgsubr
          hintmask 10101001
          1154 vlineto
          hintmask 11001001
          53 callsubr
          hintmask 10101001
          119 callgsubr
          endchar
        </CharString>
        <CharString name="afii10028">
          105 0 152 -152 88 callgsubr
          hstemhm
          209 413 287 592 hintmask 00000000
          hintmask 10111100
          1535 hmoveto
          -31 callgsubr
          -1 callsubr
          490 hlineto
          2 callgsubr
          hintmask 01111100
          -1154 vlineto
          hintmask 10111100
          -147 -17 callsubr
          744 150 vlineto
          hintmask 01111100
          117 callsubr
          hintmask 10111100
          236 25 -705 176 hhcurveto
          endchar
        </CharString>
        <CharString name="afii10029">
          177 -15 217 -202 152 1177 112 callgsubr
          349 408 hintmask 00000000
          hintmask 01011100
          1577 1360 rmoveto
          hintmask 01101100
          97 callgsubr
          -246 64 callgsubr
          -210 rlineto
          -9 45 58 -5 72 hhcurveto
          111 81 55 162 callsubr
          32 447 400 vvcurveto
          128 349 vlineto
          hintmask 01101100
          1 -1153 -217 -17 callsubr
          820 -31 callgsubr
          -195 23 rlineto
          1154 vlineto
          endchar
        </CharString>
        <CharString name="afii10030">
          745 -57 callgsubr
        </CharString>
        <CharString name="afii10031">
          306 83 callgsubr
          414 483 414 vstem
          -61 callsubr
          endchar
        </CharString>
        <CharString name="afii10032">
          83 27 callsubr
          hstem
          49 455 499 456 vstem
          746 -11 callsubr
          endchar
        </CharString>
        <CharString name="afii10033">
          266 9 callsubr
          1202 160 callsubr
          vstem
          60 hmoveto
          710 -45 callgsubr
          -148 23 rlineto
          1179 445 -1179 vlineto
          -137 63 callgsubr
          708 -31 callgsubr
          -158 24 rlineto
          1155 vlineto
          152 30 rlineto
          161 -1574 -162 vlineto
          151 -8 callsubr
          -24 callgsubr
          endchar
        </CharString>
        <CharString name="afii10034">
          -50 callgsubr
        </CharString>
        <CharString name="afii10035">
          59 callsubr
          hstem
          46 467 vstem
          778 -23 -97 callgsubr
          endchar
        </CharString>
        <CharString name="afii10036">
          114 35 callgsubr
          1168 177 hstemhm
          564 416 hintmask 00000000
          hintmask 10110000
          307 hmoveto
          956 -45 callgsubr
          hintmask 01110000
          -283 24 rlineto
          1174 vlineto
          -66 callsubr
          -1174 vlineto
          hintmask 10110000
          -257 -24 rlineto
          endchar
        </CharString>
        <CharString name="afii10037">
          76 callgsubr
          hstem
          -8 729 199 476 vstem
          487 -23 -87 callgsubr
          endchar
        </CharString>
        <CharString name="afii10038">
          394 -44 159 154 120 750 123 151 154 hstem
          -3 427 284 400 286 426 vstem
          545 -44 rmoveto
          726 159 hlineto
          -163 19 rlineto
          135 vlineto
          490 -4 222 202 292 vvcurveto
          281 -97 228 -615 -4 vhcurveto
          117 vlineto
          159 32 rlineto
          154 -725 -154 vlineto
          166 -33 rlineto
          -118 vlineto
          -527 -6 -184 -191 -294 vvcurveto
          -273 106 -236 605 8 vhcurveto
          -133 vlineto
          -163 -22 rlineto
          849 642 rmoveto
          -210 -34 -140 -252 -18 vhcurveto
          743 vlineto
          246 -35 40 -167 -173 vvcurveto
          -970 23 rmoveto
          208 35 135 249 16 vhcurveto
          -744 vlineto
          -243 36 -41 179 170 vvcurveto
          endchar
        </CharString>
        <CharString name="afii10039">
          -38 callgsubr
        </CharString>
        <CharString name="afii10040">
          302 0 158 -158 176 1184 95 callgsubr
          298 732 -587 413 -39 189 hintmask 00000000
          hintmask 10110010
          1439 -432 rmoveto
          hintmask 01111000
          53 callgsubr
          hintmask 01110100
          -226 1155 hlineto
          hintmask 10110010
          150 -7 callsubr
          vlineto
          hintmask 10111000
          -708 -162 hlineto
          hintmask 10110100
          145 -29 rlineto
          -1173 -443 1172 vlineto
          170 130 callgsubr
          149 -29 rlineto
          -1155 vlineto
          -156 -17 callsubr
          vlineto
          hintmask 10110010
          1311 78 callgsubr
          endchar
        </CharString>
        <CharString name="afii10041">
          146 -1 callgsubr
          176 357 159 callsubr
          396 412 hintmask 00000000
          hintmask 01111100
          726 hmoveto
          785 hlineto
          hintmask 10111100
          150 vlineto
          hintmask 01111100
          -152 26 rlineto
          1154 vlineto
          152 -70 callsubr
          -714 -74 callgsubr
          -61 callgsubr
          -442 vlineto
          hintmask 10111100
          -221 -24 rlineto
          endchar
        </CharString>
        <CharString name="afii10042">
          1023 0 175 1185 162 hstem
          209 413 397 412 394 411 vstem
          764 1360 rmoveto
          162 -704 -74 callgsubr
          149 -29 -63 callsubr
          -156 -25 -38 callsubr
          2340 -31 callgsubr
          -157 23 rlineto
          1156 vlineto
          150 -7 callsubr
          -702 -74 callgsubr
          47 callgsubr
          endchar
        </CharString>
        <CharString name="afii10043">
          1082 0 175 1185 95 callgsubr
          397 412 253 741 -600 411 -24 174 hintmask 00000000
          hintmask 11110010
          53 hmoveto
          2084 78 callgsubr
          hintmask 11111000
          53 callgsubr
          hintmask 11110100
          -241 1155 hlineto
          hintmask 11110010
          150 -7 callsubr
          vlineto
          hintmask 11111000
          -702 -162 hlineto
          hintmask 11110100
          47 callgsubr
          142 29 44 callgsubr
          149 -29 -63 callsubr
          -156 -25 rlineto
          endchar
        </CharString>
        <CharString name="afii10044">
          371 -16 158 -142 4 callsubr
          549 168 436 193 -164 164 -154 154 hstemhm
          565 413 361 426 -67 callgsubr
          hintmask 0101001100000000
          787 hmoveto
          85 307 -16 49 hhcurveto
          hintmask 1001100110000000
          343 194 178 304 271 -157 156 -382 hvcurveto
          -248 436 hlineto
          hintmask 1001001100000000
          240 39 rlineto
          154 -1143 vlineto
          -36 -645 rlineto
          232 hlineto
          hintmask 0011010100000000
          82 455 212 26 rlineto
          -1182 vlineto
          hintmask 0101001110000000
          -307 -17 callsubr
          vlineto
          861 725 rmoveto
          155 65 -80 -206 hvcurveto
          hintmask 1001001110000000
          -153 -44 -144 -200 -46 -40 6 10 -31 vhcurveto
          567 vlineto
          endchar
        </CharString>
        <CharString name="afii10045">
          48 callsubr
          hstemhm
          209 413 359 427 163 416 -67 callgsubr
          hintmask 0100000100010000
          1418 hmoveto
          731 150 hlineto
          hintmask 0001001000010000
          -162 25 rlineto
          1155 vlineto
          hintmask 0100000100010000
          162 -70 callsubr
          -734 -74 callgsubr
          hintmask 0001001000010000
          156 -52 callgsubr
          hintmask 0100000100010000
          -153 -24 rlineto
          -67 callgsubr
          -1041 -152 rmoveto
          118 callgsubr
          hintmask 0000110011000000
          -13 callgsubr
          hintmask 1000010011100000
          -1158 vlineto
          hintmask 0001010011000000
          52 callsubr
          hintmask 0010010011100000
          65 callgsubr
          vhcurveto
          589 vlineto
          hintmask 1000010011100000
          115 callgsubr
        </CharString>
        <CharString name="afii10046">
          -5 -16 158 -142 75 callsubr
          753 161 451 139 callgsubr
          hintmask 00011110
          377 hmoveto
          118 callgsubr
          hintmask 10001111
          -13 callgsubr
          hintmask 00101110
          -1158 vlineto
          hintmask 01001111
          52 callsubr
          hintmask 10001111
          65 callgsubr
          vhcurveto
          589 vlineto
          hintmask 01001111
          115 callgsubr
        </CharString>
        <CharString name="afii10047">
          -12 156 callsubr
          hstem
          910 455 vstem
          365 -31 callsubr
          endchar
        </CharString>
        <CharString name="afii10048">
          895 -21 150 -129 4 callsubr
          497 198 459 -68 callgsubr
          -130 151 hstemhm
          209 415 252 454 474 456 -67 callgsubr
          hintmask 1001001111000000
          1563 -21 rmoveto
          434 261 321 490 2 hvcurveto
          2 470 -186 281 -499 2 -398 1 -260 -251 -40 -422 rrcurveto
          -255 hlineto
          hintmask 1001100111000000
          459 vlineto
          hintmask 1001010111000000
          160 -70 callsubr
          -722 -74 callgsubr
          hintmask 0011100111000000
          147 -52 callgsubr
          hintmask 0101001111000000
          -150 -17 callsubr
          729 -31 callgsubr
          hintmask 0011001111000000
          -164 24 rlineto
          497 252 vlineto
          hintmask 1001001111000000
          -425 20 194 -269 473 hhcurveto
          9 150 rmoveto
          -155 -87 171 461 434 80 197 158 151 85 -142 -461 -431 -72 -229 -160 hvcurveto
          endchar
        </CharString>
        <CharString name="afii10049">
          103 0 90 callgsubr
          464 143 548 -68 callgsubr
          -137 149 hstemhm
          146 436 321 414 hintmask 00000000
          hintmask 10100101
          5 hmoveto
          445 hlineto
          81 51 564 75 143 hvcurveto
          66 -2 88 -3 24 2 rrcurveto
          hintmask 01100101
          -461 vlineto
          -172 -23 rlineto
          hintmask 10100101
          1 -152 rlineto
          742 -45 callgsubr
          hintmask 01110001
          -157 23 rlineto
          1155 vlineto
          hintmask 10101001
          150 -70 callsubr
          -349 vlineto
          -138 -71 12 -174 hhcurveto
          hintmask 10100111
          -444 -145 -144 -270 -169 93 -189 209 -50 hvcurveto
          -262 -87 -11 -419 -104 -31 -66 -23 rcurveline
          898 638 rmoveto
          -7 -18 -59 -1 -25 hhcurveto
          -145 -74 103 229 210 86 61 128 65 25 -5 -4 17 hvcurveto
          endchar
        </CharString>
        <CharString name="afii10050">
          -234 9 callsubr
          1187 182 -159 160 hstemhm
          234 414 hintmask 00000000
          hintmask 10110000
          29 1362 rmoveto
          205 33 callsubr
          -206 -25 -38 callsubr
          926 -31 callgsubr
          -306 24 rlineto
          hintmask 11010000
          1172 vlineto
          490 -17 20 550 rlineto
          -196 hlineto
          -86 -359 rlineto
          -847 hlineto
          endchar
        </CharString>
        <CharString name="afii10051">
          453 -425 183 242 158 -158 187 505 193 473 164 hstemhm
          555 414 451 423 hintmask 00000000
          hintmask 11011110
          1014 -220 rmoveto
          19 -167 rlineto
          -13 32 68 -25 114 hhcurveto
          346 250 284 486 419 -223 121 -326 -113 -164 -54 -29 -48 hvcurveto
          556 vlineto
          295 -26 72 -309 rlineto
          219 hlineto
          -37 499 rlineto
          -1449 hlineto
          -28 -499 rlineto
          216 hlineto
          65 309 233 26 rlineto
          hintmask 10111110
          -1171 vlineto
          hintmask 11011110
          -295 -29 rlineto
          -158 987 158 vlineto
          hintmask 10111110
          -278 29 rlineto
          436 vlineto
          36 40 84 33 106 hhcurveto
          160 61 -113 -294 -347 -82 -180 -154 hvcurveto
          hintmask 11011110
          -113 -33 14 8 -24 hvcurveto
          endchar
        </CharString>
        <CharString name="afii10052">
          97 callsubr
          127 callgsubr
          274 413 -230 538 hintmask 00000101
          601 -71 callgsubr
          hintmask 00000000
          230 -340 rmoveto
          86 callgsubr
          hintmask 01010010
          122 callgsubr
          hintmask 01001010
          218 -32 -63 callsubr
          hintmask 01100010
          -221 -24 rlineto
          hintmask 10001010
          -152 940 vlineto
          hintmask 01001010
          151 vlineto
          hintmask 10001010
          -306 25 rlineto
          endchar
        </CharString>
        <CharString name="afii10053">
          -17 -23 157 530 208 514 152 hstem
          46 456 vstem
          1033 657 rmoveto
          223 vlineto
          -531 -15 rlineto
          364 16 136 157 200 hhcurveto
          87 10 -29 -28 21 hvcurveto
          61 -290 rlineto
          272 hlineto
          27 435 rlineto
          10 -109 -142 54 -207 hhcurveto
          -512 -316 -289 -504 -453 249 -315 492 289 131 70 9 120 hvcurveto
          -2 377 -228 2 -88 -242 rlineto
          -25 -19 -47 -34 -117 hhcurveto
          -189 -109 237 300 -23 hvcurveto
          endchar
        </CharString>
        <CharString name="afii10054">
          42 callsubr
          hstem
          106 392 319 412 vstem
          627 -23 -41 callgsubr
        </CharString>
        <CharString name="afii10055">
          -73 callgsubr
        </CharString>
        <CharString name="afii10057">
          -592 -21 callgsubr
        </CharString>
        <CharString name="afii10058">
          763 -16 158 -157 214 -199 -19 callsubr
          706 168 455 112 callgsubr
          349 408 1 188 170 425 -67 callgsubr
          hintmask 0000111011000000
          1199 hmoveto
          85 306 -16 49 hhcurveto
          hintmask 1000011011010000
          342 192 175 297 265 -161 153 -361 -75 -154 -13 -6 -31 hvcurveto
          -1 -2 rlineto
          476 vlineto
          hintmask 1000010110100000
          188 31 rlineto
          hintmask 1000011010100000
          162 -187 vlineto
          -1 -3 rlineto
          3 -1188 vlineto
          hintmask 0100010111000000
          -74 callgsubr
          250 -29 rlineto
          -127 vlineto
          -510 -53 -270 64 callgsubr
          -207 rlineto
          -9 45 58 -5 72 hhcurveto
          111 72 62 162 callsubr
          41 440 400 vvcurveto
          hintmask 0001011011000000
          128 349 vlineto
          1 -1153 rlineto
          hintmask 0010011011010000
          -217 -17 callsubr
          vlineto
          626 695 rmoveto
          4 24 71 7 43 hhcurveto
          156 63 -77 -200 hvcurveto
          hintmask 1000011011010000
          -146 -42 -141 -201 -48 -37 7 11 -29 vhcurveto
          -1 -1 rlineto
          hintmask 0010011011010000
          536 vlineto
          endchar
        </CharString>
        <CharString name="afii10059">
          897 -17 159 -159 169 -152 158 523 182 -146 161 487 161 callsubr
          478 413 356 426 -67 callgsubr
          hintmask 0011011100000000
          940 hmoveto
          383 hlineto
          85 318 -17 48 hhcurveto
          hintmask 0100111110000000
          305 216 167 304 269 -204 155 -319 hvcurveto
          -259 455 hlineto
          150 32 rlineto
          157 -725 -157 vlineto
          162 -33 rlineto
          hintmask 0101011100000000
          -469 -478 467 vlineto
          171 -70 callsubr
          -731 -74 callgsubr
          147 -18 callgsubr
          -24 callgsubr
          hintmask 0011011100000000
          -152 733 158 vlineto
          -171 28 rlineto
          495 478 -494 vlineto
          -160 -29 rlineto
          hintmask 1000111110000000
          711 559 rmoveto
          155 63 -78 -204 -150 -41 -143 -201 -47 -37 8 9 -30 hvcurveto
          558 vlineto
          endchar
        </CharString>
        <CharString name="afii10060">
          554 9 callsubr
          525 208 472 165 hstem
          564 414 429 413 vstem
          979 785 rmoveto
          -1 -2 rlineto
          572 vlineto
          257 -26 90 -306 rlineto
          203 hlineto
          -37 499 rlineto
          -1432 hlineto
          -29 -499 rlineto
          216 hlineto
          65 309 253 25 rlineto
          -1181 vlineto
          -251 -17 callsubr
          834 -31 callgsubr
          -169 24 rlineto
          432 1 vlineto
          29 48 75 40 116 hhcurveto
          158 31 -56 -273 hvcurveto
          -173 vlineto
          -120 63 callgsubr
          673 -31 callgsubr
          -140 23 rlineto
          254 vlineto
          361 -140 95 -339 -137 -122 -42 -58 -103 vhcurveto
          endchar
        </CharString>
        <CharString name="afii10061">
          105 0 152 -152 88 callgsubr
          194 -21 80 callgsubr
          -16 538 -235 592 hintmask 00001010
          750 -71 callgsubr
          hintmask 00000000
          929 -1695 rmoveto
          -31 callgsubr
          -1 callsubr
          490 hlineto
          2 callgsubr
          hintmask 10110101
          -1154 vlineto
          hintmask 01110101
          -147 -17 callsubr
          744 150 vlineto
          hintmask 10110101
          117 callsubr
          hintmask 01110101
          236 25 -705 176 hhcurveto
          endchar
        </CharString>
        <CharString name="afii10062">
          76 callgsubr
          101 135 hstemhm
          -8 729 -430 153 callsubr
          -273 476 hintmask 00101100
          741 1623 -81 callgsubr
          hintmask 11010010
          -254 -1646 -87 callgsubr
          endchar
        </CharString>
        <CharString name="afii10065">
          -54 callgsubr
          132 callsubr
          245 366 hintmask 00000000
          hintmask 00111110
          40 330 rmoveto
          -223 159 -130 190 166 108 83 74 54 vhcurveto
          -38 vlineto
          hintmask 01011110
          -101 callsubr
          hintmask 00111110
          -446 -1 -212 -143 -236 vvcurveto
          hintmask 10011110
          -88 callsubr
          endchar
        </CharString>
        <CharString name="afii10066">
          -196 -16 142 849 188 230 403 hstem
          43 409 324 402 vstem
          624 -16 rmoveto
          365 189 255 353 394 -110 177 -344 -188 -121 -107 -56 -43 hvcurveto
          15 205 41 74 42 33 rrcurveto
          72 98 214 9 209 hhcurveto
          88 41 44 73 6 hvcurveto
          22 286 rlineto
          -206 hlineto
          -26 -77 -14 -46 -31 -14 -53 -4 rlinecurve
          -119 -11 -206 -63 -127 -85 rrcurveto
          -199 -133 -124 -215 -390 vvcurveto
          -493 186 -281 395 vhcurveto
          -7 142 rmoveto
          -150 -15 190 560 hvcurveto
          40 21 39 59 104 hhcurveto
          112 48 -48 -320 -285 -19 -196 -140 hvcurveto
          endchar
        </CharString>
        <CharString name="afii10067">
          4 -14 154 -140 75 callsubr
          526 151 291 88 callsubr
          -132 149 -17 -20 hstemhm
          208 394 292 395 -356 457 -67 callgsubr
          hintmask 0001100101000000
          81 hmoveto
          278 hlineto
          110 146 -14 136 hhcurveto
          hintmask 1000100101010000
          521 118 155 215 110 -93 143 -219 18 hvcurveto
          hintmask 1000100101100000
          157 46 54 102 125 vvcurveto
          134 -79 121 -433 vhcurveto
          hintmask 1000100011000000
          -133 -210 -17 -69 hhcurveto
          -288 hlineto
          hintmask 1000101001000000
          -27 callgsubr
          hintmask 0010110001000000
          131 -23 rlineto
          -793 vlineto
          hintmask 0100100101000000
          -127 -23 rlineto
          hintmask 1000100101010000
          521 -1 rmoveto
          375 109 vlineto
          165 57 -65 -124 -108 -45 -89 -167 -41 -60 2 9 -18 hvcurveto
          526 vmoveto
          325 vlineto
          3 34 45 1 43 hhcurveto
          hintmask 1000100101100000
          135 35 -53 -91 -84 -34 -101 -154 hvcurveto
          endchar
        </CharString>
        <CharString name="afii10068">
          -320 9 callsubr
          839 146 hstem
          205 406 vstem
          59 hmoveto
          805 -45 callgsubr
          -253 20 rlineto
          819 vlineto
          6 callgsubr
          -794 vlineto
          -146 -21 rlineto
          endchar
        </CharString>
        <CharString name="afii10069">
          -1 0 155 816 167 137 callgsubr
          hstemhm
          345 199 277 403 hintmask 00000000
          hintmask 11011000
          25 -432 rmoveto
          222 hlineto
          10 55 67 304 33 73 rrcurveto
          701 -1 hlineto
          31 -63 72 -305 10 -63 rrcurveto
          198 hlineto
          12 46 23 480 61 vvcurveto
          -180 hlineto
          hintmask 10111000
          813 vlineto
          174 23 rlineto
          hintmask 11011000
          147 -1253 vlineto
          hintmask 10111000
          -27 callgsubr
          200 -23 rlineto
          -648 -113 -121 -73 -36 vhcurveto
          -121 8 rlineto
          hintmask 11011000
          -8 -197 -5 -313 -93 vvcurveto
          796 1403 rmoveto
          -816 -388 vlineto
          63 112 48 272 343 vvcurveto
          89 vlineto
          endchar
        </CharString>
        <CharString name="afii10070">
          -43 callgsubr
          hstem
          53 403 260 375 vstem
          622 -23 -90 callsubr
        </CharString>
        <CharString name="afii10071">
          -43 callgsubr
          157 388 hstemhm
          53 403 -307 4 callgsubr
          -341 375 hintmask 00010110
          312 -102 callgsubr
          hintmask 11101001
          -217 -1347 -90 callsubr
        </CharString>
        <CharString name="afii10072">
          709 75 callgsubr
          hstem
          49 600 220 393 220 600 cntrmask 00011100
          1732 hmoveto
          413 156 hlineto
          -98 19 -90 38 -45 345 -224 93 rlinecurve
          223 316 171 24 rlineto
          -92 callsubr
          endchar
        </CharString>
        <CharString name="afii10073">
          -279 -16 104 callgsubr
          hstemhm
          641 416 -389 448 hintmask 00000000
          hintmask 10011000
          59 60 129 callgsubr
          hintmask 10010100
          52 callgsubr
          hintmask 10011000
          31 callgsubr
          hintmask 10101000
          169 callsubr
          hintmask 11011000
          9 callgsubr
          hintmask 11010100
          29 callsubr
        </CharString>
        <CharString name="afii10074">
          77 callgsubr
          hstem
          208 401 405 402 vstem
          -91 callgsubr
          endchar
        </CharString>
        <CharString name="afii10075">
          77 callgsubr
          166 137 165 callsubr
          -257 293 315 295 -241 402 hintmask 11010010
          -91 callgsubr
          hintmask 00101100
          720 1152 -81 callsubr
          endchar
        </CharString>
        <CharString name="afii10076">
          49 158 callgsubr
          hstem
          207 403 209 600 vstem
          1076 hmoveto
          410 156 hlineto
          -97 19 -92 38 -42 350 -227 90 rlinecurve
          221 314 170 24 rlineto
          -46 callgsubr
          endchar
        </CharString>
        <CharString name="afii10077">
          -95 -15 209 -194 152 816 88 callsubr
          hstemhm
          285 181 248 405 hintmask 00000000
          hintmask 01011100
          102 991 rmoveto
          hintmask 10101100
          183 -23 rlineto
          -426 -65 -348 -101 -55 -38 4 6 -29 vhcurveto
          23 -205 rlineto
          -8 30 41 -6 48 hhcurveto
          120 62 62 81 31 hvcurveto
          58 112 56 272 361 vvcurveto
          95 248 vlineto
          hintmask 01011100
          -795 vlineto
          -153 -21 93 callsubr
          -163 20 rlineto
          792 vlineto
          178 25 rlineto
          hintmask 01101100
          149 -1195 vlineto
          endchar
        </CharString>
        <CharString name="afii10078">
          561 9 callsubr
          816 88 callsubr
          -134 134 -126 126 hstemhm
          -20 559 772 699 hintmask 00000000
          hintmask 10100110
          -20 hmoveto
          559 -45 callgsubr
          -173 21 59 608 rlineto
          hintmask 10001110
          24 231 66 -234 256 -697 rlineto
          329 hlineto
          191 689 rlineto
          hintmask 10010110
          60 234 34 -237 74 -593 -148 -22 -38 callsubr
          699 -31 callgsubr
          -141 21 rlineto
          hintmask 11000110
          -149 795 rlineto
          hintmask 10100110
          192 61 callsubr
          -719 vlineto
          -157 -626 -20 -110 -26 110 -209 626 rlineto
          -704 -147 hlineto
          hintmask 11000110
          175 -23 -121 -796 -151 -20 rlineto
          endchar
        </CharString>
        <CharString name="afii10079">
          167 101 callsubr
          81 hmoveto
          649 -45 callgsubr
          73 callgsubr
          -152 651 -31 callgsubr
          -126 21 rlineto
          794 vlineto
          46 callsubr
          -795 vlineto
          -127 -20 rlineto
          endchar
        </CharString>
        <CharString name="afii10080">
          -154 -23 157 877 157 hstem
          53 425 311 427 vstem
          642 -69 callsubr
          endchar
        </CharString>
        <CharString name="afii10081">
          134 9 callsubr
          835 151 hstem
          208 404 334 404 vstem
          82 62 callgsubr
          793 80 callsubr
        </CharString>
        <CharString name="afii10082">
          -98 22 callgsubr
          hstemhm
          57 103 callgsubr
          hintmask 10101011
          1267 -45 callsubr
        </CharString>
        <CharString name="afii10083">
          -341 95 callsubr
          hstem
          61 423 vstem
          61 -16 callgsubr
          endchar
        </CharString>
        <CharString name="afii10084">
          -29 0 90 callgsubr
          816 146 hstemhm
          499 404 hintmask 00000000
          hintmask 10110000
          252 hmoveto
          910 -45 callgsubr
          hintmask 01110000
          -259 23 rlineto
          816 vlineto
          51 callgsubr
          hintmask 10110000
          -247 -23 rlineto
          endchar
        </CharString>
        <CharString name="afii10085">
          -218 -25 callsubr
          hstem
          -29 658 124 488 vstem
          321 -106 callgsubr
          endchar
        </CharString>
        <CharString name="afii10086">
          491 -497 144 327 171 -171 191 -144 -21 981 183 -163 163 hstemhm
          57 411 145 532 -376 376 -376 545 133 411 -67 callgsubr
          hintmask 1100011100100000
          1286 -26 rmoveto
          379 193 250 375 395 -191 170 -260 -111 -90 -43 -70 -63 hvcurveto
          2 241 rlineto
          342 vlineto
          -74 46 rlineto
          -6 hlineto
          hintmask 1100011001100000
          -432 -53 rlineto
          -136 vlineto
          136 -30 rlineto
          -169 vlineto
          7 -157 rlineto
          16 -35 -68 13 -45 hhcurveto
          -380 -191 -250 -375 -394 189 -171 260 114 93 45 73 62 hvcurveto
          -6 -186 rlineto
          -230 vlineto
          hintmask 1100011100100000
          -156 -29 rlineto
          -144 vlineto
          hintmask 1001011001100000
          701 144 hlineto
          -159 28 rlineto
          230 vlineto
          -4 95 rlineto
          hintmask 1100011100100000
          -16 32 54 -10 49 hhcurveto
          hintmask 1100101010100000
          -28 1007 rmoveto
          116 73 -160 -237 -338 -107 -101 -107 -43 -34 20 17 -11 hvcurveto
          755 vlineto
          30 27 37 14 49 hhcurveto
          hintmask 1010011010100000
          -602 -816 rmoveto
          -116 -73 145 237 1 hvcurveto
          339 105 115 108 44 32 -21 -17 12 vhcurveto
          -754 vlineto
          -30 -27 -37 -14 -49 hhcurveto
          endchar
        </CharString>
        <CharString name="afii10087">
          -48 callgsubr
        </CharString>
        <CharString name="afii10088">
          127 0 158 810 88 callsubr
          hstemhm
          208 404 340 405 146 callgsubr
          1293 -432 rmoveto
          192 hlineto
          16 46 43 482 62 vvcurveto
          -187 hlineto
          hintmask 11011000
          810 vlineto
          hintmask 10111000
          113 61 callsubr
          -633 -27 callgsubr
          hintmask 11011000
          115 -23 rlineto
          -810 -340 810 vlineto
          hintmask 10111000
          121 61 callsubr
          -653 -27 callgsubr
          hintmask 11011000
          128 -23 rlineto
          -793 vlineto
          -123 -24 rlineto
          -151 1119 vlineto
          hintmask 10111000
          30 -63 48 -306 11 -63 rrcurveto
          endchar
        </CharString>
        <CharString name="afii10089">
          110 callgsubr
          hstemhm
          95 407 303 393 hintmask 00000000
          hintmask 10101110
          151 callsubr
          hintmask 01101110
          -280 vlineto
          hintmask 10101110
          -178 63 callgsubr
          698 -31 callgsubr
          hintmask 01101110
          116 callgsubr
          hintmask 10110110
          111 callsubr
          hintmask 10101110
          70 callsubr
          endchar
        </CharString>
        <CharString name="afii10090">
          767 90 callsubr
          2040 148 hlineto
          -141 24 rlineto
          797 vlineto
          1 callsubr
        </CharString>
        <CharString name="afii10091">
          761 90 callsubr
          1763 hlineto
          30 -63 49 -313 10 -63 rrcurveto
          192 hlineto
          16 46 43 489 62 vvcurveto
          -204 811 hlineto
          1 callsubr
        </CharString>
        <CharString name="afii10092">
          204 148 callgsubr
          -19 callsubr
          554 158 253 173 -146 146 hstemhm
          479 391 328 409 -67 callgsubr
          hintmask 0001101100000000
          220 hmoveto
          459 161 callgsubr
          hintmask 1000110110000000
          348 198 112 278 211 -149 128 -333 -51 -161 -5 -3 -43 hvcurveto
          261 vlineto
          hintmask 0010101100000000
          168 27 rlineto
          146 -1001 vlineto
          -5 -495 rlineto
          220 hlineto
          60 332 167 16 rlineto
          -815 vlineto
          hintmask 0100101110000000
          -259 -24 rlineto
          786 402 rmoveto
          151 41 -113 -96 hvcurveto
          hintmask 1000101110000000
          -121 -65 -88 -183 -27 -29 2 8 -24 vhcurveto
          404 vlineto
          hintmask 0100101110000000
          3 30 86 1 20 hhcurveto
          endchar
        </CharString>
        <CharString name="afii10093">
          82 callgsubr
          hstemhm
          208 392 281 409 156 382 -67 callgsubr
          hintmask 0101011010000000
          73 hmoveto
          291 161 callgsubr
          hintmask 1001101110000000
          82 callsubr
          hintmask 1001011010000000
          137 27 rlineto
          146 -666 -146 vlineto
          hintmask 0011101010000000
          157 callsubr
          hintmask 0101011010000000
          1252 -148 rmoveto
          637 -45 callgsubr
          hintmask 0011011010000000
          98 callgsubr
          hintmask 0101011110000000
          110 callsubr
          hintmask 1001011110000000
          159 callgsubr
          hintmask 0101011110000000
          1 35 41 0 13 hhcurveto
          endchar
        </CharString>
        <CharString name="afii10094">
          -70 148 callgsubr
          148 -148 173 -152 -21 554 158 256 170 -148 148 hstemhm
          208 394 322 409 -67 callgsubr
          hintmask 0001101100000000
          80 hmoveto
          331 hlineto
          78 257 -17 45 hhcurveto
          hintmask 1000110110000000
          347 195 117 273 211 -150 128 -332 -51 -154 -5 -3 -44 hvcurveto
          264 vlineto
          hintmask 1000101100000000
          152 22 rlineto
          148 -674 -148 vlineto
          hintmask 0010110100000000
          128 -22 rlineto
          -795 vlineto
          hintmask 0100101110000000
          -128 -25 rlineto
          653 406 rmoveto
          152 39 -113 -96 hvcurveto
          hintmask 1000101110000000
          -121 -62 -88 -182 -34 -22 0 7 -22 vhcurveto
          408 vlineto
          hintmask 0100101110000000
          2 31 81 1 19 hhcurveto
          endchar
        </CharString>
        <CharString name="afii10095">
          140 callsubr
          hstem
          638 421 vstem
          273 486 -30 callgsubr
        </CharString>
        <CharString name="afii10096">
          595 -23 150 -127 4 callsubr
          332 164 319 147 -120 150 hstemhm
          208 404 922 428 hintmask 00000000
          hintmask 01010111
          82 hmoveto
          678 -45 callgsubr
          hintmask 00110111
          -148 24 rlineto
          332 196 vlineto
          hintmask 10010111
          -360 20 227 -171 314 hhcurveto
          325 268 164 445 397 -233 185 -328 -295 -248 -149 -347 -44 hvcurveto
          -202 hlineto
          hintmask 00111011
          295 vlineto
          138 -7 callgsubr
          -666 -27 callgsubr
          124 -23 rlineto
          -792 vlineto
          hintmask 01010111
          -126 -24 rlineto
          hintmask 10010111
          1310 -25 rmoveto
          -115 -44 132 344 309 47 106 102 116 36 -129 -345 -310 -41 -107 -101 hvcurveto
          endchar
        </CharString>
        <CharString name="afii10097">
          10 0 154 282 140 391 171 -149 149 -123 139 hstemhm
          95 433 304 395 hintmask 00000000
          hintmask 11001010
          33 hmoveto
          426 hlineto
          109 7 365 72 112 hvcurveto
          145 -1 rlineto
          -259 vlineto
          -143 -23 rlineto
          -154 682 154 vlineto
          -144 22 rlineto
          hintmask 11100010
          791 vlineto
          hintmask 11010010
          141 22 rlineto
          149 -285 vlineto
          -100 -173 16 -154 hhcurveto
          hintmask 11001110
          -401 -160 -139 -221 -177 86 -107 163 -45 hvcurveto
          -84 -64 -26 -196 -118 -30 -83 -22 rcurveline
          691 424 rmoveto
          -154 -42 124 127 157 104 30 83 71 30 -6 -3 16 hvcurveto
          -426 vlineto
          -2 -27 -34 -1 -47 hhcurveto
          endchar
        </CharString>
        <CharString name="afii10098">
          -340 0 90 callgsubr
          804 159 -146 146 hstemhm
          210 393 hintmask 00000000
          hintmask 10101000
          870 hmoveto
          -31 callgsubr
          hintmask 01101000
          -267 23 rlineto
          812 vlineto
          442 -16 -13 490 rlineto
          -206 hlineto
          -41 -323 rlineto
          -717 hlineto
          hintmask 01011000
          -146 vlineto
          142 -24 rlineto
          -793 vlineto
          hintmask 10101000
          -146 166 callsubr
          endchar
        </CharString>
        <CharString name="afii10099">
          -19 -524 -21 28 -21 538 69 callsubr
          172 688 220 114 134 hstemhm
          172 394 -394 466 5 147 68 406 -67 callgsubr
          hintmask 0110111011000000
          7 1194 rmoveto
          165 hlineto
          hintmask 0101111011000000
          -1022 vlineto
          hintmask 0110111011000000
          -106 156 callgsubr
          601 151 vlineto
          hintmask 0101111011000000
          -101 22 rlineto
          617 vlineto
          24 28 58 46 76 hhcurveto
          96 34 -54 -161 hvcurveto
          -600 vlineto
          -193 2 -158 -114 -54 vhcurveto
          hintmask 0110110101000000
          -28 -14 -59 -9 -21 1 rrcurveto
          hintmask 0110111011000000
          10 -156 rlineto
          hintmask 1010111011000000
          11 -7 83 -1 16 1 rrcurveto
          339 4 167 222 340 vvcurveto
          623 vlineto
          317 -97 119 -233 -176 -126 -62 -80 -84 vhcurveto
          21 235 rlineto
          21 221 134 -222 309 vlineto
          -68 50 5 callsubr
          hintmask 0110110101000000
          -456 -53 rlineto
          -144 vlineto
          126 callsubr
          -132 -165 vlineto
          endchar
        </CharString>
        <CharString name="afii10100">
          -318 9 callsubr
          839 146 149 569 hstemhm
          207 406 -288 599 hintmask 00101000
          475 1286 -94 callsubr
          hintmask 11010000
          -264 -1403 rmoveto
          805 -45 callgsubr
          -253 20 rlineto
          819 vlineto
          6 callgsubr
          -794 vlineto
          -146 -21 rlineto
          endchar
        </CharString>
        <CharString name="afii10101">
          -335 -23 166 348 178 348 151 hstem
          33 418 vstem
          849 485 rmoveto
          191 vlineto
          -398 -13 rlineto
          223 5 44 131 132 hhcurveto
          63 31 -30 -33 19 hvcurveto
          34 -122 rlineto
          222 hlineto
          8 274 rlineto
          22 -60 -185 40 -130 hhcurveto
          -322 -281 -217 -372 2 hvcurveto
          -366 2 166 -236 382 hhcurveto
          181 163 52 64 78 hvcurveto
          12 225 rlineto
          -176 hlineto
          -53 -154 rlineto
          -13 -32 -36 -8 -40 hhcurveto
          -132 -77 92 263 -17 hvcurveto
          endchar
        </CharString>
        <CharString name="afii10102">
          -312 -23 147 895 147 hstem
          93 366 212 395 vstem
          99 57 -98 callgsubr
        </CharString>
        <CharString name="afii10103">
          -669 0 99 callgsubr
          hintmask 00000000
          hintmask 10100100
          82 hmoveto
          616 -45 callgsubr
          hintmask 01100100
          -96 callgsubr
          hintmask 10100100
          96 callsubr
          hintmask 00011000
          290 1149 -105 callsubr
          endchar
        </CharString>
        <CharString name="afii10104">
          -669 -23 callgsubr
          177 388 hstemhm
          -82 380 -104 398 -145 379 hintmask 00011010
          81 -102 callgsubr
          hintmask 00000000
          -526 -1324 rmoveto
          616 -45 callgsubr
          hintmask 10100100
          -96 callgsubr
          hintmask 01100100
          155 callsubr
        </CharString>
        <CharString name="afii10105">
          -708 41 callgsubr
          1665 -20 154 406 hstemhm
          162 436 -400 390 hintmask 00000000
          hintmask 01100100
          198 98 rmoveto
          hintmask 10100100
          -95 callsubr
          hintmask 00011000
          164 63 callsubr
          endchar
        </CharString>
        <CharString name="afii10106">
          455 -17 158 -156 209 -194 108 callgsubr
          -151 -21 541 166 261 88 callsubr
          hstemhm
          293 177 249 405 339 395 -67 callgsubr
          hintmask 0000111011100000
          944 hmoveto
          77 290 -17 44 hhcurveto
          hintmask 1000010111100000
          346 157 114 273 226 -138 111 -337 -121 -100 -22 -10 -38 hvcurveto
          289 vlineto
          178 25 rlineto
          hintmask 1000011011100000
          149 -1196 vlineto
          hintmask 1000010111100000
          -27 callgsubr
          hintmask 0100011011100000
          30 callsubr
          vlineto
          hintmask 0001011011100000
          -796 vlineto
          hintmask 0010011011100000
          -150 156 callgsubr
          vlineto
          687 172 callsubr
          hintmask 1000011011100000
          -122 -53 -87 -182 -40 -41 5 7 -23 vhcurveto
          363 vlineto
          hintmask 0010011011100000
          10 29 39 15 64 hhcurveto
          endchar
        </CharString>
        <CharString name="afii10107">
          708 -17 158 -141 108 callgsubr
          338 161 -130 166 284 166 callgsubr
          392 390 393 339 395 -67 callgsubr
          hintmask 0101011100000000
          1193 hmoveto
          78 289 -17 45 hhcurveto
          hintmask 1000111110000000
          346 166 114 273 226 -137 111 -338 -121 -100 -22 -10 -38 hvcurveto
          292 vlineto
          131 -7 callgsubr
          -651 -27 callgsubr
          127 -23 rlineto
          hintmask 0011011100000000
          -297 -390 297 vlineto
          127 61 callsubr
          -650 163 callsubr
          -795 vlineto
          hintmask 0101011100000000
          -127 156 callgsubr
          646 -31 callgsubr
          hintmask 0011011100000000
          -127 20 rlineto
          338 390 -338 vlineto
          hintmask 0100111110000000
          -127 156 callgsubr
          vlineto
          652 172 callsubr
          hintmask 1000111110000000
          -122 -52 -87 -182 -41 -40 5 7 -23 vhcurveto
          -1 -1 rlineto
          364 vlineto
          hintmask 0100111110000000
          10 29 39 15 64 hhcurveto
          endchar
        </CharString>
        <CharString name="afii10108">
          -14 9 callsubr
          705 218 105 148 hstemhm
          39 525 -392 404 293 395 hintmask 00000000
          hintmask 11101100
          29 1180 rmoveto
          143 -1008 hlineto
          -99 156 callgsubr
          604 -31 callgsubr
          -101 21 rlineto
          614 vlineto
          35 35 59 35 73 hhcurveto
          102 24 -59 -161 hvcurveto
          -465 vlineto
          -95 -21 rlineto
          -151 607 -31 callgsubr
          -117 22 rlineto
          464 vlineto
          294 -68 143 -262 -189 -132 -84 -62 -68 vhcurveto
          21 188 -1 63 rlineto
          249 148 -249 hlineto
          -1 302 -67 50 rlineto
          -7 hlineto
          hintmask 11110100
          -451 -53 rlineto
          -142 vlineto
          hintmask 11101100
          126 callsubr
          -127 -143 vlineto
          endchar
        </CharString>
        <CharString name="afii10109">
          44 158 callgsubr
          148 569 hstemhm
          208 403 -181 599 -209 600 hintmask 00010100
          580 1286 -94 callsubr
          hintmask 11101010
          647 -1403 rmoveto
          410 156 hlineto
          -97 19 -92 38 -42 350 -227 90 rlinecurve
          221 314 170 24 rlineto
          -46 callgsubr
          endchar
        </CharString>
        <CharString name="afii10110">
          -218 -25 callsubr
          166 137 hstemhm
          -29 658 -462 293 293 488 -466 295 hintmask 11101010
          321 -106 callgsubr
          hintmask 00010101
          296 1814 -81 callsubr
          endchar
        </CharString>
        <CharString name="afii10145">
          290 0 157 1173 130 callsubr
          413 118 52 128 52 119 413 hintmask 00000000
          hintmask 10111110
          1656 hmoveto
          -31 callgsubr
          -152 23 rlineto
          hintmask 11011110
          1155 vlineto
          hintmask 10111110
          148 130 callgsubr
          hintmask 11011110
          171 -30 rlineto
          -1173 -469 1173 vlineto
          hintmask 10111110
          170 130 callgsubr
          hintmask 11011110
          149 -52 callgsubr
          -152 -17 callsubr
          614 vlineto
          20 -27 49 -265 -146 vvcurveto
          232 hlineto
          146 42 265 21 27 vhcurveto
          endchar
        </CharString>
        <CharString name="afii10146">
          292 -15 152 -137 137 568 158 147 327 217 152 hstemhm
          516 413 358 410 hintmask 00000000
          hintmask 01111100
          313 hmoveto
          439 hlineto
          78 260 -15 36 hhcurveto
          hintmask 10111110
          358 213 165 304 234 -153 175 -352 -145 -77 -16 -10 -41 hvcurveto
          335 1 vlineto
          265 -28 61 -134 rlineto
          218 hlineto
          -36 327 rlineto
          -509 185 hlineto
          178 32 1 152 rlineto
          -752 -152 hlineto
          160 -30 rlineto
          -187 -487 vlineto
          -29 -328 rlineto
          181 hlineto
          65 135 270 28 rlineto
          -997 vlineto
          -203 -23 rlineto
          752 553 rmoveto
          164 58 -124 -154 -161 -76 -129 -199 -36 -23 0 8 -24 hvcurveto
          547 vlineto
          8 32 45 5 59 hhcurveto
          endchar
        </CharString>
        <CharString name="afii10147">
          83 -23 151 504 194 -87 194 459 151 hstemhm
          49 455 498 457 hintmask 00000000
          hintmask 11011100
          -20 callgsubr
          139 655 rmoveto
          43 39 13 21 33 hvcurveto
          -351 -16 -87 -187 -145 hhcurveto
          -146 -94 151 422 -8 hvcurveto
          hintmask 10111100
          20 21 20 18 42 hhcurveto
          hintmask 11011100
          106 54 -107 138 hhcurveto
          -130 760 rmoveto
          145 93 -122 -413 9 hvcurveto
          -18 -19 -19 -13 -37 hhcurveto
          hintmask 10111100
          -105 -57 107 -136 hhcurveto
          -47 -41 -16 -23 -34 hvcurveto
          hintmask 11011100
          339 17 86 159 145 hhcurveto
          endchar
        </CharString>
        <CharString name="afii10148">
          36 6 -21 1363 193 -181 162 19 -20 hstemhm
          -58 739 -739 1584 hintmask 00000000
          hintmask 10010100
          845 473 rmoveto
          -29 -155 -37 155 rlineto
          hintmask 10100100
          -259 857 rlineto
          hintmask 10101000
          161 -70 callsubr
          -739 -74 callgsubr
          126 -30 501 -1345 rlineto
          337 hlineto
          365 1085 rlineto
          hintmask 11000100
          201 55 73 77 121 hhcurveto
          6 169 hlineto
          8 -24 -67 16 -113 hhcurveto
          -123 -112 -73 -196 -36 hvcurveto
          endchar
        </CharString>
        <CharString name="afii10193">
          128 0 155 836 168 callgsubr
          392 72 231 48 393 vstem
          85 hmoveto
          523 hlineto
          12 -27 52 -242 -144 vvcurveto
          231 hlineto
          1 144 36 242 14 27 rrcurveto
          521 151 hlineto
          -131 24 rlineto
          793 vlineto
          127 61 callsubr
          -647 -27 callgsubr
          127 -24 rlineto
          -812 -351 812 vlineto
          128 -7 callgsubr
          -648 -27 callgsubr
          128 -24 rlineto
          -792 vlineto
          -123 -24 rlineto
          endchar
        </CharString>
        <CharString name="afii10194">
          181 148 callgsubr
          136 -136 148 406 153 291 154 hstemhm
          481 391 301 409 hintmask 00000000
          hintmask 10011100
          33 806 rmoveto
          192 hlineto
          62 188 194 10 rlineto
          hintmask 00111100
          -832 vlineto
          -113 -24 rlineto
          hintmask 01011100
          -148 333 vlineto
          73 274 -17 42 hhcurveto
          hintmask 10011110
          337 155 119 273 204 -127 128 -321 -133 -93 -23 -10 -36 hvcurveto
          329 vlineto
          220 -9 69 -188 rlineto
          191 hlineto
          -10 347 rlineto
          -470 477 hlineto
          -68 50 5 callsubr
          -452 -53 rlineto
          -143 vlineto
          134 -30 rlineto
          -301 -438 vlineto
          971 -599 rmoveto
          123 36 -94 -96 -121 -57 -107 -153 -40 -25 1 11 -26 hvcurveto
          376 vlineto
          11 26 60 19 56 hhcurveto
          endchar
        </CharString>
        <CharString name="afii10195">
          -153 -23 157 295 172 -53 166 297 157 176 callgsubr
          310 428 hintmask 00000000
          hintmask 10111100
          -4 callgsubr
          589 -425 rmoveto
          -110 -49 118 290 -5 hvcurveto
          4 10 11 2 14 hhcurveto
          hintmask 11011100
          85 19 -119 116 hhcurveto
          19 18 2 4 16 hvcurveto
          hintmask 10111100
          -213 -12 -46 -88 -86 hhcurveto
          hintmask 11011100
          119 467 rmoveto
          hintmask 10111100
          -85 -11 113 -114 hhcurveto
          -28 -23 -5 -8 -19 hvcurveto
          219 12 52 91 87 hhcurveto
          110 42 -118 -288 4 hvcurveto
          hintmask 11011100
          -3 -8 -9 -1 -10 hhcurveto
          endchar
        </CharString>
        <CharString name="afii10196">
          -216 5 -21 1008 146 14 -20 hstemhm
          -28 631 -631 1309 hintmask 00000000
          hintmask 10101000
          442 -16 rmoveto
          363 hlineto
          299 822 31 92 24 59 37 26 rlinecurve
          21 29 29 5 27 hhcurveto
          126 vlineto
          6 -25 -60 11 -103 hhcurveto
          -127 -67 -67 -124 -33 hvcurveto
          -131 -533 -45 -186 -50 188 rlineto
          hintmask 11001000
          -157 538 rlineto
          hintmask 11010000
          120 24 rlineto
          146 -631 -146 vlineto
          73 -23 rlineto
          endchar
        </CharString>
        <CharString name="afii10846">
          -285 113 callgsubr
          hstem
          50 384 246 403 vstem
          50 396 -27 callsubr
        </CharString>
        <CharString name="afii61248">
          717 11 146 -136 -21 620 201 -44 146 444 172 hstemhm
          98 294 812 311 234 310 hintmask 00000000
          hintmask 01101111
          509 620 rmoveto
          150 103 64 60 66 hvcurveto
          -72 134 rlineto
          -31 -40 -63 -26 -91 hhcurveto
          -122 -50 115 183 2 hvcurveto
          149 3 36 99 100 hhcurveto
          53 16 -32 -22 10 hvcurveto
          30 -128 rlineto
          182 hlineto
          9 308 rlineto
          -1 -46 -77 47 -166 hhcurveto
          -286 -159 -227 -250 1 hvcurveto
          -278 1 159 -164 251 hhcurveto
          330 -620 rmoveto
          656 1538 rlineto
          -237 hlineto
          -656 -1538 rlineto
          hintmask 10011111
          1030 157 rmoveto
          -100 -17 184 132 174 19 130 103 99 12 -167 -147 1 hvcurveto
          -175 -13 -131 -104 vhcurveto
          -20 -146 rmoveto
          251 196 164 296 251 -102 201 -307 -255 -191 -168 -297 117 callgsubr
          hvcurveto
          endchar
        </CharString>
        <CharString name="afii61352">
          1401 0 150 -10 200 173 123 726 160 -160 184 hstemhm
          273 220 805 220 212 384 265 379 -67 callgsubr
          hintmask 1011011110000000
          70 hmoveto
          647 150 hlineto
          -224 29 rlineto
          952 vlineto
          97 -221 596 -910 rlineto
          332 1331 hlineto
          185 31 rlineto
          160 -611 -160 vlineto
          206 -32 rlineto
          -881 vlineto
          -112 261 -539 812 rlineto
          -577 -160 hlineto
          hintmask 1010111110000000
          203 -31 rlineto
          -1153 vlineto
          -203 -28 rlineto
          2142 363 rmoveto
          287 258 164 373 1 hvcurveto
          331 -192 165 -289 -285 -262 -160 -374 -332 193 -167 289 vhcurveto
          hintmask 0110111110000000
          -442 -373 rmoveto
          944 200 -944 hlineto
          480 296 rmoveto
          -82 -54 100 304 281 44 103 87 -1 hvcurveto
          81 -1 53 -97 -304 vvcurveto
          -282 -44 -103 -85 vhcurveto
          endchar
        </CharString>
        <CharString name="agrave">
          -54 callgsubr
          119 569 132 callsubr
          -278 598 -75 366 -100 callgsubr
          hintmask 0000010100000000
          39 1097 -80 callsubr
        </CharString>
        <CharString name="amacron">
          -54 callgsubr
          247 220 132 callsubr
          -203 671 -223 366 -100 callgsubr
          hintmask 0000010100000000
          -332 1225 20 callsubr
        </CharString>
        <CharString name="ampersand">
          151 -25 161 -131 -21 704 166 568 121 hstemhm
          57 336 -191 365 246 316 -74 507 -360 228 -67 callgsubr
          hintmask 1011100100000000
          1055 688 rmoveto
          hintmask 1001011010000000
          147 -32 3 -90 -6 -84 -34 -88 rlinecurve
          -25 24 -97 88 -164 189 -98 119 rlinecurve
          247 111 101 106 206 vvcurveto
          154 -128 152 -300 -281 -218 -172 -233 -167 80 -130 82 -108 vhcurveto
          hintmask 1001101010000000
          -138 -51 -169 -120 -188 vvcurveto
          -270 228 -129 378 175 113 30 49 79 vhcurveto
          hintmask 0111101010000000
          -53 87 73 -17 121 hhcurveto
          40 150 12 28 36 hvcurveto
          148 vlineto
          -98 7 -77 43 -73 58 rrcurveto
          70 81 71 127 168 vvcurveto
          hintmask 1011100100000000
          132 32 rlineto
          166 -507 vlineto
          -341 -718 rmoveto
          -197 -124 113 185 80 29 52 38 43 hvcurveto
          119 -149 155 -181 145 -116 rrcurveto
          -17 -38 -49 -10 -78 hhcurveto
          hintmask 1001011010000000
          -147 1080 rmoveto
          147 51 59 82 97 16 -117 -61 -104 -18 -125 -97 -97 vhcurveto
          -51 65 -80 110 123 vvcurveto
          endchar
        </CharString>
        <CharString name="aogonek">
          -242 54 callsubr
          492 212 -194 -21 24 -21 24 151 -130 -21 559 150 207 250 132 callsubr
          164 540 -459 366 -67 callgsubr
          hintmask 0100001111010000
          40 330 rmoveto
          hintmask 0100100111010000
          -223 159 -130 190 166 108 83 74 54 vhcurveto
          -38 vlineto
          hintmask 0101000111010000
          -91 23 -31 121 vhcurveto
          21 hlineto
          hintmask 0100001111100000
          -162 -69 -103 -102 -108 vvcurveto
          -124 99 -86 182 84 118 24 43 57 vhcurveto
          hintmask 1000001111100000
          148 callsubr
          -17 -4 -47 hhcurveto
          -82 -42 43 59 64 87 99 140 43 hvcurveto
          hintmask 0100001111010000
          13 3 rlineto
          hintmask 0100010111010000
          148 -100 586 vlineto
          305 -103 124 -346 -266 -206 -115 -44 -57 vhcurveto
          79 -168 rlineto
          1 hlineto
          27 66 119 50 162 hhcurveto
          161 24 -56 -119 hvcurveto
          -32 vlineto
          hintmask 0100001111010000
          -446 -1 -212 -143 -236 vvcurveto
          hintmask 0110000111010000
          -88 callsubr
          endchar
        </CharString>
        <CharString name="approxequal">
          -33 75 255 -71 253 176 255 -71 253 hstemhm
          171 1039 hintmask 00000000
          hintmask 01001000
          281 153 164 callsubr
          hintmask 10001000
          16 callgsubr
          hintmask 01001000
          67 callgsubr
          hintmask 00000000
          110 485 164 callsubr
          hintmask 00011000
          16 callgsubr
          hintmask 00101000
          67 callgsubr
          endchar
        </CharString>
        <CharString name="aring">
          -54 callgsubr
          115 156 297 159 132 callsubr
          -247 213 279 366 -320 212 -67 callgsubr
          hintmask 0011100101000000
          40 330 rmoveto
          -223 159 -130 190 166 108 83 74 54 vhcurveto
          -38 vlineto
          hintmask 0101100101000000
          -101 callsubr
          hintmask 0011100101000000
          -446 -1 -212 -143 -236 vvcurveto
          hintmask 1001100101000000
          -88 callsubr
          hintmask 0000011010100000
          -6 1093 -52 callsubr
          endchar
        </CharString>
        <CharString name="arrowboth">
          1206 661 256 hstem
          96 2438 vstem
          2534 788 rmoveto
          -607 135 callsubr
          -1187 125 callgsubr
          606 -606 171 169 -329 328 177 -18 rlineto
          1187 hlineto
          177 18 -329 -328 171 -169 rlineto
          endchar
        </CharString>
        <CharString name="arrowdown">
          151 145 1340 hstem
          659 256 vstem
          896 594 rmoveto
          19 177 rlineto
          714 -256 -714 vlineto
          19 -177 -329 329 -169 -171 606 -607 607 607 -169 171 rlineto
          endchar
        </CharString>
        <CharString name="arrowleft">
          151 661 256 hstem
          96 1340 vstem
          702 182 rmoveto
          171 169 -330 329 178 -19 rlineto
          715 256 -715 125 callgsubr
          rlineto
          endchar
        </CharString>
        <CharString name="arrowright">
          128 661 256 hstem
          126 1340 vstem
          1466 788 rmoveto
          -606 135 callsubr
          -715 -256 715 hlineto
          178 19 -330 -329 171 -169 rlineto
          endchar
        </CharString>
        <CharString name="arrowup">
          151 126 1340 hstem
          659 256 vstem
          1224 688 rmoveto
          169 171 -607 607 -606 -607 169 -171 329 329 -19 -177 rlineto
          -714 256 714 vlineto
          -19 177 rlineto
          endchar
        </CharString>
        <CharString name="arrowupdn">
          151 -440 2438 hstem
          659 256 vstem
          787 1998 rmoveto
          -607 -606 169 -171 329 329 -19 -178 rlineto
          -1186 vlineto
          19 -178 -329 330 -169 -172 607 -606 606 606 -169 172 -328 -330 19 178 rlineto
          1186 vlineto
          -19 178 328 -329 169 171 rlineto
          endchar
        </CharString>
        <CharString name="asciicircum">
          -60 1531 -20 hstem
          149 1065 vstem
          149 274 rmoveto
          307 hlineto
          224 873 225 -873 rlineto
          309 hlineto
          -412 1257 rlineto
          -246 hlineto
          endchar
        </CharString>
        <CharString name="asciitilde">
          15 381 255 -71 253 hstemhm
          192 1039 hintmask 00000000
          hintmask 01100000
          302 459 164 callsubr
          hintmask 10100000
          16 callgsubr
          hintmask 01100000
          67 callgsubr
          endchar
        </CharString>
        <CharString name="asterisk">
          -28 611 1153 hstem
          114 1169 vstem
          268 767 rmoveto
          136 102 239 230 -75 -314 -13 -174 rlineto
          304 hlineto
          -18 174 -91 311 252 -226 127 -94 154 258 -146 69 -332 85 332 92 140 78 -151 248 -138 -99 -238 -227 75 311 14 173 rlineto
          -304 hlineto
          17 -178 91 -312 -244 228 -139 96 -146 -251 150 -69 323 -91 -323 -94 -146 -76 rlineto
          endchar
        </CharString>
        <CharString name="at">
          812 -530 191 267 287 -257 226 720 189 285 190 hstemhm
          144 238 210 299 405 260 322 215 -67 callgsubr
          hintmask 1011111110000000
          144 330 rmoveto
          -534 305 -326 505 203 198 51 100 118 vhcurveto
          -56 128 rlineto
          -51 -76 -166 -37 -163 hhcurveto
          -330 -300 225 503 597 354 392 459 331 352 -144 -497 -326 -157 -227 -139 -14 -17 57 85 5 hvcurveto
          5 200 84 337 37 161 -65 16 -75 33 -54 14 -29 6 -39 -30 -8 -26 rrcurveto
          39 -79 -92 17 -76 hhcurveto
          -353 -220 -361 -363 hvcurveto
          hintmask 1101111110000000
          -276 163 -165 148 199 139 253 249 91 vhcurveto
          -26 -147 -12 -92 2 -56 rrcurveto
          hintmask 1011111110000000
          -118 3 63 -59 72 hhcurveto
          178 481 293 568 478 -310 271 -482 -606 -551 -550 -688 hvcurveto
          hintmask 1101111110000000
          747 131 rmoveto
          223 74 220 157 46 124 -52 -36 30 vhcurveto
          -6 -50 -30 -99 -19 -61 rrcurveto
          -190 -62 -134 -201 -82 hhcurveto
          -68 -30 163 83 hvcurveto
          endchar
        </CharString>
        <CharString name="atilde">
          -54 callgsubr
          148 59 callgsubr
          40 413 -344 960 -371 366 -67 callgsubr
          hintmask 0011100010100000
          40 330 rmoveto
          -223 159 -130 190 166 108 83 74 54 vhcurveto
          -38 vlineto
          hintmask 0101100010100000
          -101 callsubr
          hintmask 0011100010100000
          -446 -1 -212 -143 -236 vvcurveto
          hintmask 1001100010100000
          -88 callsubr
          -67 callgsubr
          -367 1202 96 callgsubr
          hintmask 0000001001000000
          68 callsubr
          hintmask 0000010001000000
          68 callgsubr
          hintmask 0000000101000000
          60 callgsubr
          hintmask 0000010001000000
          -12 callsubr
        </CharString>
        <CharString name="b">
          -124 -23 144 callsubr
          hstemhm
          139 386 298 418 146 callgsubr
          17 callsubr
          hintmask 11011000
          49 callgsubr
          endchar
        </CharString>
        <CharString name="backslash">
          143 callgsubr
          18 758 vstem
          273 1599 rmoveto
          -255 hlineto
          503 -1962 rlineto
          255 hlineto
          endchar
        </CharString>
        <CharString name="bar">
          109 callsubr
          1966 -253 hlineto
          endchar
        </CharString>
        <CharString name="braceleft">
          127 callsubr
          273 374 -229 324 hintmask 00000000
          hintmask 11110000
          273 -11 rmoveto
          -174 96 -108 272 125 103 28 21 98 vhcurveto
          146 -154 vlineto
          -89 -77 22 125 hvcurveto
          hintmask 11101000
          107 95 151 134 vvcurveto
          149 -144 74 -179 24 vhcurveto
          179 25 144 66 149 134 -95 158 108 vvcurveto
          hintmask 11110000
          123 77 23 89 vhcurveto
          154 139 hlineto
          21 -98 -103 28 -125 hhcurveto
          -272 -96 -108 -174 hvcurveto
          hintmask 11101000
          -186 145 -101 -177 vvcurveto
          -82 -1 -46 -249 vhcurveto
          -187 vlineto
          249 1 -70 -85 hvcurveto
          hintmask 11110000
          -178 -145 -93 -186 vvcurveto
          endchar
        </CharString>
        <CharString name="braceright">
          127 callsubr
          352 324 -229 374 hintmask 00000000
          hintmask 11101000
          821 -11 rmoveto
          186 -145 93 178 vvcurveto
          85 1 70 249 vhcurveto
          187 vlineto
          hintmask 11110000
          -249 -1 46 82 hvcurveto
          177 145 101 186 vvcurveto
          174 -96 108 -272 -125 -103 -28 -21 -98 vhcurveto
          -139 vlineto
          hintmask 11101000
          154 hlineto
          89 77 -23 -123 hvcurveto
          -108 -95 -158 -134 vvcurveto
          -149 144 -66 179 -25 vhcurveto
          hintmask 11110000
          -179 -24 -144 -74 -149 -134 95 -151 -107 vvcurveto
          -125 -77 -22 -89 vhcurveto
          -154 -146 hlineto
          -21 98 103 -28 125 hhcurveto
          hintmask 11101000
          272 96 108 174 hvcurveto
          endchar
        </CharString>
        <CharString name="bracketleft">
          151 callgsubr
          169 343 vstem
          169 -50 rmoveto
          -197 117 -34 170 109 99 20 24 84 vhcurveto
          128 -236 1586 236 126 vlineto
          21 -84 -99 23 -109 hhcurveto
          -170 -117 -34 -197 hvcurveto
          endchar
        </CharString>
        <CharString name="bracketright">
          151 callgsubr
          377 343 vstem
          720 1416 rmoveto
          197 -117 34 -170 -109 -99 -23 -21 -84 vhcurveto
          -126 236 -1586 -236 -128 vlineto
          -24 84 99 -20 109 hhcurveto
          170 117 34 197 hvcurveto
          endchar
        </CharString>
        <CharString name="breve">
          -401 1315 253 hstem
          118 178 428 174 vstem
          511 1315 -92 callgsubr
        </CharString>
        <CharString name="breve.cap">
          -401 1615 232 hstem
          109 187 427 194 vstem
          514 1615 8 callsubr
        </CharString>
        <CharString name="breve.r">
          -401 1304 137 hstem
          60 293 315 295 vstem
          510 1304 -81 callsubr
          endchar
        </CharString>
        <CharString name="breve.rcap">
          -401 1623 135 hstem
          60 153 callsubr
          vstem
          510 1623 -81 callgsubr
          endchar
        </CharString>
        <CharString name="brokenbar">
          109 callsubr
          827 -253 hlineto
          309 vmoveto
          253 830 -253 hlineto
          endchar
        </CharString>
        <CharString name="bullet">
          -542 395 173 callgsubr
          395 50 callgsubr
        </CharString>
        <CharString name="bullet.cap">
          -542 511 173 callgsubr
          511 50 callgsubr
        </CharString>
        <CharString name="c">
          -341 95 callsubr
          hstem
          61 423 vstem
          61 -16 callgsubr
          endchar
        </CharString>
        <CharString name="cacute">
          -346 95 callsubr
          116 569 hstemhm
          57 423 -79 599 hintmask 00101000
          551 1284 -94 callsubr
          hintmask 11010000
          -344 -838 -97 callsubr
          endchar
        </CharString>
        <CharString name="caron">
          -403 1716 -21 hstem
          87 851 vstem
          410 1292 72 callgsubr
        </CharString>
        <CharString name="caron.cap">
          -744 1637 -21 hstem
          -79 837 vstem
          226 1616 -32 callgsubr
        </CharString>
        <CharString name="caronvertical">
          -980 1623 -21 hstem
          121 270 vstem
          266 953 -59 callsubr
        </CharString>
        <CharString name="ccaron">
          -346 95 callsubr
          546 -21 hstemhm
          57 423 -282 851 hintmask 00101000
          521 1290 -70 callgsubr
          hintmask 11010000
          -141 -1130 -97 callsubr
          endchar
        </CharString>
        <CharString name="ccedilla">
          -346 33 callgsubr
          516 -21 1017 166 hstemhm
          57 423 -129 471 hintmask 00000000
          hintmask 00111100
          57 563 rmoveto
          1 -316 133 -235 333 -31 rrcurveto
          hintmask 10011010
          21 -38 26 -60 -53 vvcurveto
          -49 callsubr
          hintmask 00111010
          133 callsubr
          hintmask 01111010
          116 callsubr
          121 -77 107 -51 54 172 26 118 88 36 43 -63 139 rcurveline
          -37 -65 -80 -35 -127 hhcurveto
          hintmask 00111100
          -135 -78 143 271 1 hvcurveto
          309 1 66 70 85 hhcurveto
          32 35 -12 -34 8 hvcurveto
          57 -249 rlineto
          243 hlineto
          17 399 rlineto
          3 -72 -86 59 -214 hhcurveto
          -341 -253 -221 -384 -1 hvcurveto
          endchar
        </CharString>
        <CharString name="ccircumflex">
          -346 95 callsubr
          119 512 hstemhm
          57 423 -282 852 hintmask 00101000
          320 1287 rmoveto
          -79 callgsubr
          hintmask 11010000
          -141 -833 -97 callsubr
          endchar
        </CharString>
        <CharString name="cdotaccent">
          -346 95 callsubr
          131 406 hstemhm
          57 423 -90 436 hintmask 11010000
          -17 callgsubr
          hintmask 00101000
          534 736 -105 callsubr
          endchar
        </CharString>
        <CharString name="cedilla">
          -808 33 callgsubr
          hstemhm
          61 471 hintmask 00000000
          hintmask 00110000
          216 9 78 callsubr
          hintmask 10010000
          -49 callsubr
          hintmask 00110000
          133 callsubr
          hintmask 01110000
          -62 callgsubr
          7 143 -110 124 -44 39 -44 5 rcurveline
          endchar
        </CharString>
        <CharString name="cent">
          -231 1 -21 31 -21 1170 -20 24 -20 hstemhm
          99 423 -28 197 -100 198 hintmask 00000000
          hintmask 01011010
          99 563 rmoveto
          1 -294 115 -224 285 -55 rrcurveto
          hintmask 10010100
          -12 -233 rlineto
          198 hlineto
          11 223 197 16 136 100 39 46 rlinecurve
          175 callgsubr
          -37 -65 -80 -35 -127 hhcurveto
          hintmask 01011010
          -135 -78 143 271 1 hvcurveto
          309 1 66 70 85 hhcurveto
          32 35 -12 -34 8 hvcurveto
          57 -249 rlineto
          243 hlineto
          17 399 -61 2 -71 43 -150 13 rlinecurve
          11 211 rlineto
          -198 hlineto
          hintmask 01101010
          -11 -215 rlineto
          hintmask 01011010
          -285 -43 -201 -212 -1 -342 rrcurveto
          endchar
        </CharString>
        <CharString name="circumflex">
          -404 1289 512 hstem
          86 852 vstem
          208 1289 67 callsubr
        </CharString>
        <CharString name="circumflex.cap">
          -361 1725 -21 22 -21 hstemhm
          92 857 hintmask 00000000
          hintmask 01100000
          218 1596 -82 callsubr
          hintmask 10100000
          30 callgsubr
        </CharString>
        <CharString name="colon">
          -731 7 -21 843 -21 hstemhm
          127 437 hintmask 01100000
          324 808 rmoveto
          -64 callsubr
          hintmask 10100000
          -822 vmoveto
          -64 callsubr
          endchar
        </CharString>
        <CharString name="colonmonetary">
          213 -24 162 -141 -21 26 -21 23 -21 1393 167 hstemhm
          110 436 482 11 hintmask 00000000
          hintmask 00011110
          622 -323 rmoveto
          132 hlineto
          23 306 rlineto
          hintmask 01001110
          -4 41 43 -3 46 hhcurveto
          -22 -299 rlineto
          131 hlineto
          hintmask 00101110
          23 304 192 16 65 49 134 13 rlinecurve
          36 311 -206 40 -91 -210 -27 -22 -36 -18 -52 -11 rlinecurve
          81 1212 28 -5 22 -7 12 -7 rlinecurve
          45 -293 rlineto
          216 hlineto
          27 435 rlineto
          -67 -123 28 18 -147 hvcurveto
          21 277 rlineto
          -131 hlineto
          -20 -266 rlineto
          1 -25 -25 1 -26 -18 -17 -1 -17 hhcurveto
          20 265 rlineto
          -132 hlineto
          -21 -279 rlineto
          -389 -62 -258 -267 -465 vvcurveto
          -400 180 -252 356 -79 vhcurveto
          hintmask 10001110
          148 157 rmoveto
          82 1216 rlineto
          2 15 16 1 17 hhcurveto
          26 28 -1 -2 27 hvcurveto
          -82 -1238 rlineto
          -47 -43 7 15 -39 hvcurveto
          -248 596 rmoveto
          304 76 181 118 83 vhcurveto
          -72 -1068 rlineto
          -79 99 -43 164 237 vvcurveto
          endchar
        </CharString>
        <CharString name="comma">
          -738 -474 -21 hstem
          293 270 vstem
          331 21 callgsubr
          endchar
        </CharString>
        <CharString name="commaaccent">
          -744 -539 -21 65 -21 hstem
          161 358 vstem
          519 -252 -99 callgsubr
          endchar
        </CharString>
        <CharString name="copyright">
          707 136 132 247 211 609 166 232 132 hstem
          198 157 277 242 901 156 vstem
          1079 515 rmoveto
          145 135 84 71 57 hvcurveto
          -70 127 rlineto
          -42 -46 -79 -29 -75 hhcurveto
          -160 -112 126 189 167 67 127 139 79 24 -17 -12 17 hvcurveto
          47 -138 rlineto
          146 hlineto
          6 272 rlineto
          39 -40 -130 22 -89 hhcurveto
          -300 -208 -215 -284 -282 147 -205 300 hvcurveto
          -724 486 rmoveto
          56 callsubr
          -157 hmoveto
          57 callgsubr
          endchar
        </CharString>
        <CharString name="currency">
          124 136 1274 -1100 270 386 271 hstemhm
          309 283 359 284 hintmask 00000000
          hintmask 10011000
          157 274 rmoveto
          138 -138 rlineto
          hintmask 01111000
          236 236 rlineto
          -40 70 81 -22 88 hhcurveto
          87 82 25 43 70 hvcurveto
          238 -238 138 138 -236 232 rlineto
          54 78 32 95 101 vvcurveto
          97 -30 88 -50 73 vhcurveto
          234 230 -138 138 -239 -237 rlineto
          41 -71 -82 23 -89 hhcurveto
          -88 -81 -25 -43 -69 hvcurveto
          -239 239 -136 -139 236 -233 rlineto
          -53 -78 -31 -95 -101 vvcurveto
          -98 29 -89 51 -72 vhcurveto
          383 77 rmoveto
          -94 -86 85 104 103 63 94 112 92 92 -73 -124 -104 -61 -85 -118 hvcurveto
          endchar
        </CharString>
        <CharString name="d">
          -126 40 callgsubr
          hstemhm
          58 89 callgsubr
          hintmask 00000000
          hintmask 10101100
          500 -23 rmoveto
          32 callsubr
          hintmask 01011100
          -65 callgsubr
          hintmask 01101100
          -20 callsubr
          hvcurveto
          hintmask 10101100
          -72 callgsubr
          endchar
        </CharString>
        <CharString name="dagger">
          -315 61 1601 hstemhm
          153 800 -553 310 hintmask 00000000
          hintmask 10100000
          449 61 rmoveto
          213 hlineto
          48 727 -35 299 rlineto
          hintmask 11000000
          279 -24 rlineto
          272 vlineto
          hintmask 10100000
          -279 -24 35 220 rlineto
          131 -310 -131 vlineto
          35 -220 rlineto
          hintmask 11000000
          -281 24 -1 -272 282 24 -35 -299 rlineto
          endchar
        </CharString>
        <CharString name="daggerdbl">
          -314 423 244 hstemhm
          153 802 -555 264 -215 261 hintmask 00000000
          hintmask 11000000
          153 414 rmoveto
          hintmask 10010000
          292 19 -44 -220 48 -670 rlineto
          hintmask 10100000
          215 hlineto
          47 670 -43 220 rlineto
          hintmask 11000000
          287 -19 rlineto
          263 vlineto
          -287 -19 37 259 -29 170 279 -22 rlineto
          270 vlineto
          hintmask 10010000
          -281 -24 36 213 rlineto
          138 vlineto
          hintmask 10100000
          -310 -138 hlineto
          35 -213 rlineto
          hintmask 11000000
          -282 24 rlineto
          -270 vlineto
          283 22 -32 -170 41 -259 -292 19 rlineto
          endchar
        </CharString>
        <CharString name="dcaron">
          180 40 callgsubr
          485 -21 hstemhm
          59 89 callgsubr
          193 270 hintmask 00000000
          hintmask 10100110
          501 -23 rmoveto
          32 callsubr
          hintmask 01010110
          -65 callgsubr
          hintmask 01100110
          -20 callsubr
          hvcurveto
          hintmask 10100110
          -72 callgsubr
          hintmask 00001001
          855 771 -59 callsubr
        </CharString>
        <CharString name="dcroat">
          -124 40 callgsubr
          110 142 hstemhm
          59 89 callgsubr
          hintmask 00000000
          hintmask 01101110
          502 1248 rmoveto
          271 hlineto
          hintmask 01011110
          -90 vlineto
          hintmask 10101110
          -20 callsubr
          -402 191 -164 251 32 callsubr
          hintmask 01101110
          -101 49 -21 103 89 129 18 12 67 vhcurveto
          150 -99 1094 142 142 -142 234 vlineto
          -72 56 rlineto
          -10 hlineto
          -496 -43 rlineto
          -151 vlineto
          191 -32 rlineto
          -64 -271 vlineto
          hintmask 10101110
          141 -1208 rmoveto
          -103 -67 116 281 2 hvcurveto
          335 2 92 97 107 hhcurveto
          44 37 -14 -18 16 hvcurveto
          -737 vlineto
          -32 -24 -40 -28 -66 hhcurveto
          endchar
        </CharString>
        <CharString name="degree">
          -345 908 199 372 198 hstem
          148 222 336 224 vstem
          538 908 rmoveto
          218 174 164 221 209 -164 175 -228 -213 -177 -164 -220 -210 177 -175 213 hvcurveto
          2 199 rmoveto
          -93 -77 89 97 103 68 83 99 95 74 -88 -98 -106 -66 -80 -100 hvcurveto
          endchar
        </CharString>
        <CharString name="dieresis">
          -402 1324 388 hstem
          57 4 callgsubr
          vstem
          220 -102 callgsubr
          endchar
        </CharString>
        <CharString name="dieresis.cap">
          -403 1626 5 callgsubr
          46 41 callsubr
          hintmask 00000000
          hintmask 01110000
          207 19 callgsubr
          hintmask 10110000
          91 -54 79 -128 -88 callgsubr
          hintmask 01110000
          -86 callsubr
          hintmask 10110000
          91 -54 79 -129 -88 callgsubr
          hintmask 01110000
          99 callsubr
        </CharString>
        <CharString name="divide">
          -70 498 229 hstemhm
          482 390 -384 388 hintmask 00000000
          hintmask 11000000
          482 173 rmoveto
          -100 87 -68 88 128 87 63 116 88 -71 81 -113 -114 -92 -73 -107 vhcurveto
          -282 325 rmoveto
          953 229 -953 hlineto
          hintmask 10100000
          463 172 rmoveto
          127 86 63 116 88 -70 81 -113 -114 -91 -73 -108 -100 86 -67 89 hvcurveto
          endchar
        </CharString>
        <CharString name="dollar">
          -53 -21 156 -129 -21 1407 147 -3 -20 23 -20 hstemhm
          155 389 55 196 57 407 hintmask 00000000
          hintmask 01001111
          1259 448 rmoveto
          229 -191 124 -173 91 vhcurveto
          -167 86 -184 85 153 vvcurveto
          hintmask 01100111
          86 61 90 135 63 59 -24 -26 23 vhcurveto
          44 -220 rlineto
          222 hlineto
          13 347 -51 12 -159 45 -157 13 rlinecurve
          223 -198 vlineto
          hintmask 10010111
          -226 vlineto
          -304 -37 -140 -187 -189 vvcurveto
          -273 185 -127 176 -88 vhcurveto
          207 -102 129 -80 -127 vvcurveto
          -106 -45 -85 -165 -112 -52 33 32 -26 vhcurveto
          -57 246 rlineto
          -226 hlineto
          -17 -380 60 -11 173 -64 215 -12 rlinecurve
          -2 -237 rlineto
          197 hlineto
          hintmask 01001111
          2 243 rlineto
          359 43 103 231 189 vvcurveto
          endchar
        </CharString>
        <CharString name="dong">
          2 0 158 123 169 574 135 -22 -20 154 145 hstemhm
          140 391 273 355 -348 470 hintmask 00000000
          hintmask 10101110
          507 1271 rmoveto
          297 hlineto
          hintmask 10011110
          -134 vlineto
          hintmask 11101101
          12 -56 -69 10 -57 hhcurveto
          -304 -178 -152 -305 -284 175 -137 214 128 93 56 61 61 hvcurveto
          -29 vlineto
          -71 22 -27 89 77 230 23 15 52 vhcurveto
          133 vlineto
          hintmask 11101110
          -122 829 170 145 -170 265 hlineto
          -45 31 5 callsubr
          -460 -36 rlineto
          -148 vlineto
          155 -17 rlineto
          -95 -297 vlineto
          -330 -1416 rmoveto
          1122 158 -1122 hlineto
          503 292 rmoveto
          -87 -66 85 199 4 hvcurveto
          235 3 65 55 90 hhcurveto
          60 46 -18 -15 9 hvcurveto
          -471 vlineto
          -33 -23 -44 -37 -57 hhcurveto
          endchar
        </CharString>
        <CharString name="dotaccent">
          -859 1301 406 hstem
          62 436 vstem
          263 1301 -105 callsubr
          endchar
        </CharString>
        <CharString name="dotaccent.cap">
          -849 1638 363 hstem
          84 417 vstem
          275 1638 -23 callsubr
        </CharString>
        <CharString name="dotlessi">
          -35 callsubr
          hstemhm
          193 398 hintmask 00000000
          hintmask 10110000
          162 callgsubr
          hintmask 01110000
          -96 callgsubr
          hintmask 10110000
          155 callsubr
        </CharString>
        <CharString name="dotlessj">
          -708 41 callgsubr
          1665 -20 hstemhm
          198 390 hintmask 00000000
          hintmask 01110000
          198 98 rmoveto
          hintmask 10110000
          -95 callsubr
          endchar
        </CharString>
        <CharString name="e">
          -43 callgsubr
          hstem
          53 403 260 375 vstem
          622 -23 -90 callsubr
        </CharString>
        <CharString name="eacute">
          -43 callgsubr
          119 569 hstemhm
          53 403 -79 599 -260 375 hintmask 00010100
          527 1286 -94 callsubr
          hintmask 11101010
          245 -1426 -90 callsubr
        </CharString>
        <CharString name="ebreve">
          -43 callgsubr
          148 253 hstemhm
          53 403 -253 178 335 375 -282 174 hintmask 11101010
          622 -23 -107 callsubr
          hintmask 00010101
          -5 304 -92 callgsubr
        </CharString>
        <CharString name="ecaron">
          -43 callgsubr
          549 -21 hstemhm
          53 403 -283 851 -308 375 hintmask 00010100
          496 1292 -70 callgsubr
          hintmask 11101010
          449 -1718 -90 callsubr
        </CharString>
        <CharString name="ecircumflex">
          -43 callgsubr
          122 512 hstemhm
          53 403 -285 852 -307 375 hintmask 00010100
          293 1289 rmoveto
          -79 callgsubr
          hintmask 11101010
          451 -1421 -90 callsubr
        </CharString>
        <CharString name="edieresis">
          -43 callgsubr
          157 388 hstemhm
          53 403 -310 4 callgsubr
          -338 375 hintmask 00010110
          309 -102 callgsubr
          hintmask 11101001
          -214 -1347 -90 callsubr
        </CharString>
        <CharString name="edotaccent">
          -43 callgsubr
          134 406 hstemhm
          53 403 -91 436 -85 375 hintmask 11101010
          622 -23 -107 callsubr
          hintmask 00010100
          -35 290 -105 callsubr
          endchar
        </CharString>
        <CharString name="egrave">
          -43 callgsubr
          119 569 hstemhm
          53 403 -271 598 -67 375 hintmask 11101010
          622 -23 -107 callsubr
          hintmask 00010100
          30 275 -80 callsubr
        </CharString>
        <CharString name="eight">
          -84 -25 157 1264 148 hstemhm
          78 314 -247 353 366 399 -374 285 hintmask 00000000
          hintmask 11100100
          78 370 rmoveto
          -285 275 -110 298 vhcurveto
          hintmask 11101000
          376 236 162 262 236 -171 129 -180 102 hvcurveto
          hintmask 11010100
          175 72 87 118 143 vvcurveto
          192 -164 153 -330 -304 -231 -151 -261 -195 102 -119 127 -88 vhcurveto
          hintmask 11100100
          -193 -76 -103 -133 -151 vvcurveto
          hintmask 11101000
          786 -39 rmoveto
          -127 -104 -72 -107 -171 -90 127 167 97 38 80 61 56 vhcurveto
          184 -101 189 -71 -156 vvcurveto
          hintmask 11010100
          -366 892 rmoveto
          118 92 55 93 138 68 -85 -156 -77 -40 -82 -67 -60 vhcurveto
          -153 83 -131 77 127 vvcurveto
          endchar
        </CharString>
        <CharString name="eight.dnom">
          -332 -15 132 868 123 hstemhm
          92 28 callsubr
          hintmask 00000000
          hintmask 11100100
          549 -15 rmoveto
          hintmask 11101000
          -9 callsubr
          hintmask 11010100
          -39 callgsubr
          hintmask 11100100
          17 callgsubr
          hintmask 11101000
          -40 callgsubr
          hintmask 11010100
          -35 callgsubr
          endchar
        </CharString>
</ttFont>
